M48
; DRILL file {KiCad (5.1.10)-1} date 09/25/21 23:34:59
; FORMAT={-:-/ absolute / inch / decimal}
; #@! TF.CreationDate,2021-09-25T23:34:59+08:00
; #@! TF.GenerationSoftware,Kicad,Pcbnew,(5.1.10)-1
; #@! TF.FileFunction,Plated,1,2,PTH
FMAT,2
INCH
T1C0.0157
T2C0.0709
%
G90
G05
T1
X3.9245Y-3.9617
X3.9345Y-3.4617
X3.9345Y-3.5217
X3.9345Y-3.5917
X3.9345Y-3.6517
X3.9345Y-3.7167
X3.9345Y-3.7767
X3.9745Y-3.4317
X3.9745Y-3.4967
X3.9745Y-3.5617
X3.9745Y-3.6267
X3.9745Y-3.6867
X3.9745Y-3.7517
X3.9845Y-3.9217
T2
X4.3935Y-3.2664
X4.3935Y-3.4317
X4.3935Y-4.7714
X4.3935Y-4.9367
X4.3935Y-5.3417
X4.3935Y-5.5071
X4.3945Y-3.8417
X4.3945Y-4.0071
X4.5588Y-3.2664
X4.5588Y-3.4317
X4.5588Y-4.7714
X4.5588Y-4.9367
X4.5588Y-5.3417
X4.5588Y-5.5071
X4.5599Y-3.8417
X4.5599Y-4.0071
X4.7242Y-3.2664
X4.7242Y-3.4317
X4.7242Y-4.7714
X4.7242Y-4.9367
X4.7242Y-5.3417
X4.7242Y-5.5071
X4.7252Y-3.8417
X4.7252Y-4.0071
X4.8895Y-3.2664
X4.8895Y-3.4317
X4.8895Y-4.7714
X4.8895Y-4.9367
X4.8895Y-5.3417
X4.8895Y-5.5071
X4.8906Y-3.8417
X4.8906Y-4.0071
T0
M30
