%TF.GenerationSoftware,KiCad,Pcbnew,(5.1.10)-1*%
%TF.CreationDate,2021-09-25T23:34:43+08:00*%
%TF.ProjectId,KCORES CSPS to ATX Converter,4b434f52-4553-4204-9353-505320746f20,1.0*%
%TF.SameCoordinates,Original*%
%TF.FileFunction,Copper,L1,Top*%
%TF.FilePolarity,Positive*%
%FSLAX46Y46*%
G04 Gerber Fmt 4.6, Leading zero omitted, Abs format (unit mm)*
G04 Created by KiCad (PCBNEW (5.1.10)-1) date 2021-09-25 23:34:43*
%MOMM*%
%LPD*%
G01*
G04 APERTURE LIST*
%TA.AperFunction,ConnectorPad*%
%ADD10R,4.300000X0.700000*%
%TD*%
%TA.AperFunction,ConnectorPad*%
%ADD11R,3.200000X0.700000*%
%TD*%
%TA.AperFunction,ComponentPad*%
%ADD12O,2.700000X3.700000*%
%TD*%
%TA.AperFunction,ViaPad*%
%ADD13C,0.800000*%
%TD*%
%TA.AperFunction,Conductor*%
%ADD14C,0.508000*%
%TD*%
%TA.AperFunction,Conductor*%
%ADD15C,0.762000*%
%TD*%
%TA.AperFunction,Conductor*%
%ADD16C,0.100000*%
%TD*%
G04 APERTURE END LIST*
D10*
%TO.P,J1,B13*%
%TO.N,GND*%
X96381000Y-100658000D03*
%TO.P,J1,B12*%
X96381000Y-99658000D03*
%TO.P,J1,B18*%
%TO.N,+12V*%
X96381000Y-105658000D03*
%TO.P,J1,B17*%
X96381000Y-104658000D03*
%TO.P,J1,B16*%
X96381000Y-103658000D03*
%TO.P,J1,B15*%
%TO.N,Net-(J1-PadB15)*%
X96381000Y-102658000D03*
%TO.P,J1,B14*%
%TO.N,Net-(J1-PadB14)*%
X96381000Y-101658000D03*
%TO.P,J1,B11*%
%TO.N,GND*%
X96381000Y-96658000D03*
%TO.P,J1,B10*%
X96381000Y-95658000D03*
%TO.P,J1,B9*%
X96381000Y-94658000D03*
%TO.P,J1,B8*%
X96381000Y-93658000D03*
%TO.P,J1,B7*%
X96381000Y-92658000D03*
%TO.P,J1,B6*%
X96381000Y-91658000D03*
%TO.P,J1,B5*%
X96381000Y-90658000D03*
%TO.P,J1,B4*%
X96381000Y-89658000D03*
%TO.P,J1,B3*%
X96381000Y-88658000D03*
%TO.P,J1,B2*%
%TO.N,Net-(J1-PadB2)*%
X96381000Y-87658000D03*
%TO.P,J1,B1*%
%TO.N,GND*%
X96381000Y-86658000D03*
%TO.P,J1,B19*%
%TO.N,+12V*%
X96381000Y-106658000D03*
%TO.P,J1,B20*%
X96381000Y-107658000D03*
%TO.P,J1,B21*%
X96381000Y-108658000D03*
%TO.P,J1,B22*%
X96381000Y-109658000D03*
%TO.P,J1,B23*%
X96381000Y-110658000D03*
%TO.P,J1,B24*%
X96381000Y-111658000D03*
%TO.P,J1,B25*%
X96381000Y-112658000D03*
%TO.P,J1,B26*%
X96381000Y-113658000D03*
%TO.P,J1,B27*%
X96381000Y-114658000D03*
%TO.P,J1,B28*%
X96381000Y-115658000D03*
%TO.P,J1,B29*%
X96381000Y-116658000D03*
%TO.P,J1,B30*%
X96381000Y-117658000D03*
%TO.P,J1,B31*%
X96381000Y-118658000D03*
%TO.P,J1,B32*%
X96381000Y-119658000D03*
%TO.P,J1,B33*%
X96381000Y-120658000D03*
%TO.P,J1,B34*%
X96381000Y-121658000D03*
%TO.P,J1,B35*%
X96381000Y-122658000D03*
%TO.P,J1,B36*%
X96381000Y-123658000D03*
%TO.P,J1,B37*%
X96381000Y-124658000D03*
%TO.P,J1,B38*%
X96381000Y-125658000D03*
%TO.P,J1,B39*%
X96381000Y-126658000D03*
%TO.P,J1,B40*%
X96381000Y-127658000D03*
%TO.P,J1,B41*%
X96381000Y-128658000D03*
%TO.P,J1,B42*%
X96381000Y-129658000D03*
%TO.P,J1,B43*%
X96381000Y-130658000D03*
%TO.P,J1,B44*%
X96381000Y-131658000D03*
%TO.P,J1,B45*%
X96381000Y-132658000D03*
%TO.P,J1,B46*%
X96381000Y-133658000D03*
%TO.P,J1,B47*%
X96381000Y-134658000D03*
D11*
%TO.P,J1,B48*%
X96931000Y-135658000D03*
D10*
%TO.P,J1,B49*%
X96381000Y-136658000D03*
%TD*%
D12*
%TO.P,J6,8*%
%TO.N,GND*%
X111594000Y-121193000D03*
%TO.P,J6,7*%
X115794000Y-121193000D03*
%TO.P,J6,6*%
X119994000Y-121193000D03*
%TO.P,J6,5*%
X124194000Y-121193000D03*
%TO.P,J6,4*%
%TO.N,+12V*%
X111594000Y-125393000D03*
%TO.P,J6,3*%
X115794000Y-125393000D03*
%TO.P,J6,1*%
%TA.AperFunction,ComponentPad*%
G36*
G01*
X125544000Y-123794100D02*
X125544000Y-126991900D01*
G75*
G02*
X125292900Y-127243000I-251100J0D01*
G01*
X123095100Y-127243000D01*
G75*
G02*
X122844000Y-126991900I0J251100D01*
G01*
X122844000Y-123794100D01*
G75*
G02*
X123095100Y-123543000I251100J0D01*
G01*
X125292900Y-123543000D01*
G75*
G02*
X125544000Y-123794100I0J-251100D01*
G01*
G37*
%TD.AperFunction*%
%TO.P,J6,2*%
X119994000Y-125393000D03*
%TD*%
%TO.P,J5,8*%
%TO.N,GND*%
X111594000Y-82966000D03*
%TO.P,J5,7*%
X115794000Y-82966000D03*
%TO.P,J5,6*%
X119994000Y-82966000D03*
%TO.P,J5,5*%
X124194000Y-82966000D03*
%TO.P,J5,4*%
%TO.N,+12V*%
X111594000Y-87166000D03*
%TO.P,J5,3*%
X115794000Y-87166000D03*
%TO.P,J5,1*%
%TA.AperFunction,ComponentPad*%
G36*
G01*
X125544000Y-85567100D02*
X125544000Y-88764900D01*
G75*
G02*
X125292900Y-89016000I-251100J0D01*
G01*
X123095100Y-89016000D01*
G75*
G02*
X122844000Y-88764900I0J251100D01*
G01*
X122844000Y-85567100D01*
G75*
G02*
X123095100Y-85316000I251100J0D01*
G01*
X125292900Y-85316000D01*
G75*
G02*
X125544000Y-85567100I0J-251100D01*
G01*
G37*
%TD.AperFunction*%
%TO.P,J5,2*%
X119994000Y-87166000D03*
%TD*%
%TO.P,J4,8*%
%TO.N,GND*%
X124194000Y-139880000D03*
%TO.P,J4,7*%
X119994000Y-139880000D03*
%TO.P,J4,6*%
X115794000Y-139880000D03*
%TO.P,J4,5*%
X111594000Y-139880000D03*
%TO.P,J4,4*%
%TO.N,+12V*%
X124194000Y-135680000D03*
%TO.P,J4,3*%
X119994000Y-135680000D03*
%TO.P,J4,1*%
%TA.AperFunction,ComponentPad*%
G36*
G01*
X110244000Y-137278900D02*
X110244000Y-134081100D01*
G75*
G02*
X110495100Y-133830000I251100J0D01*
G01*
X112692900Y-133830000D01*
G75*
G02*
X112944000Y-134081100I0J-251100D01*
G01*
X112944000Y-137278900D01*
G75*
G02*
X112692900Y-137530000I-251100J0D01*
G01*
X110495100Y-137530000D01*
G75*
G02*
X110244000Y-137278900I0J251100D01*
G01*
G37*
%TD.AperFunction*%
%TO.P,J4,2*%
X115794000Y-135680000D03*
%TD*%
%TO.P,J3,8*%
%TO.N,GND*%
X124221000Y-101780000D03*
%TO.P,J3,7*%
X120021000Y-101780000D03*
%TO.P,J3,6*%
X115821000Y-101780000D03*
%TO.P,J3,5*%
X111621000Y-101780000D03*
%TO.P,J3,4*%
%TO.N,+12V*%
X124221000Y-97580000D03*
%TO.P,J3,3*%
X120021000Y-97580000D03*
%TO.P,J3,1*%
%TA.AperFunction,ComponentPad*%
G36*
G01*
X110271000Y-99178900D02*
X110271000Y-95981100D01*
G75*
G02*
X110522100Y-95730000I251100J0D01*
G01*
X112719900Y-95730000D01*
G75*
G02*
X112971000Y-95981100I0J-251100D01*
G01*
X112971000Y-99178900D01*
G75*
G02*
X112719900Y-99430000I-251100J0D01*
G01*
X110522100Y-99430000D01*
G75*
G02*
X110271000Y-99178900I0J251100D01*
G01*
G37*
%TD.AperFunction*%
%TO.P,J3,2*%
X115821000Y-97580000D03*
%TD*%
D13*
%TO.N,GND*%
X101207000Y-99612000D03*
X99683000Y-100628000D03*
X99937000Y-91230000D03*
X100953000Y-92119000D03*
X100953000Y-90468000D03*
X99937000Y-94405000D03*
X100953000Y-95294000D03*
X100953000Y-93643000D03*
X99937000Y-95929000D03*
X99937000Y-92754000D03*
X100953000Y-87166000D03*
X99937000Y-87928000D03*
X100953000Y-88817000D03*
X99937000Y-89452000D03*
%TD*%
D14*
%TO.N,GND*%
X96381000Y-86658000D02*
X100318000Y-86658000D01*
D15*
X96381000Y-88658000D02*
X100159000Y-88658000D01*
X96381000Y-89658000D02*
X100016000Y-89658000D01*
X96381000Y-90658000D02*
X100127000Y-90658000D01*
X96381000Y-91658000D02*
X99984000Y-91658000D01*
X99841000Y-92658000D02*
X99937000Y-92754000D01*
X96381000Y-92658000D02*
X99841000Y-92658000D01*
X96381000Y-93658000D02*
X99922000Y-93658000D01*
X99684000Y-94658000D02*
X99937000Y-94405000D01*
X96381000Y-94658000D02*
X99684000Y-94658000D01*
X99666000Y-95658000D02*
X99937000Y-95929000D01*
X96381000Y-95658000D02*
X99666000Y-95658000D01*
D14*
X101803979Y-98744202D02*
X100890181Y-99658000D01*
X101803979Y-97587979D02*
X101803979Y-98744202D01*
X100890181Y-99658000D02*
X96381000Y-99658000D01*
X100874000Y-96658000D02*
X101803979Y-97587979D01*
X96381000Y-96658000D02*
X100874000Y-96658000D01*
D15*
X102350000Y-97326000D02*
X101207000Y-96183000D01*
X102350000Y-98977000D02*
X102350000Y-97326000D01*
X100669000Y-100658000D02*
X102350000Y-98977000D01*
X96381000Y-100658000D02*
X100669000Y-100658000D01*
D14*
X100318000Y-86658000D02*
X101080000Y-86658000D01*
X101080000Y-86658000D02*
X101461000Y-87039000D01*
D15*
%TO.N,+12V*%
X96381000Y-103658000D02*
X100554000Y-103658000D01*
X96381000Y-104658000D02*
X100538000Y-104658000D01*
X96381000Y-105658000D02*
X100395000Y-105658000D01*
X96381000Y-106658000D02*
X100511000Y-106658000D01*
X96381000Y-107658000D02*
X100400000Y-107658000D01*
X96381000Y-108658000D02*
X100416000Y-108658000D01*
X96381000Y-109658000D02*
X100432000Y-109658000D01*
X96381000Y-110658000D02*
X100569000Y-110658000D01*
X96381000Y-111658000D02*
X100553000Y-111658000D01*
X96381000Y-112658000D02*
X100537000Y-112658000D01*
X96381000Y-113658000D02*
X100623000Y-113658000D01*
X96381000Y-114658000D02*
X100385000Y-114658000D01*
X96381000Y-115658000D02*
X100655000Y-115658000D01*
X96381000Y-116658000D02*
X100417000Y-116658000D01*
X96381000Y-117658000D02*
X100560000Y-117658000D01*
X96381000Y-118658000D02*
X100695000Y-118658000D01*
X96381000Y-119658000D02*
X100679000Y-119658000D01*
X96381000Y-120658000D02*
X100663000Y-120658000D01*
X96381000Y-121658000D02*
X100520000Y-121658000D01*
X96381000Y-122658000D02*
X100640000Y-122658000D01*
X96381000Y-123658000D02*
X100615000Y-123658000D01*
X96381000Y-124658000D02*
X100545000Y-124658000D01*
X96381000Y-125658000D02*
X99926000Y-125658000D01*
X96381000Y-126658000D02*
X100948000Y-126658000D01*
X96381000Y-127658000D02*
X100593000Y-127658000D01*
X96381000Y-128658000D02*
X100662000Y-128658000D01*
X96381000Y-129658000D02*
X100773000Y-129658000D01*
X96381000Y-130658000D02*
X100641000Y-130658000D01*
X96381000Y-131658000D02*
X100784000Y-131658000D01*
X96381000Y-132658000D02*
X100419000Y-132658000D01*
X96381000Y-133658000D02*
X100562000Y-133658000D01*
X96381000Y-134658000D02*
X100451000Y-134658000D01*
X96931000Y-135658000D02*
X100169000Y-135658000D01*
X96381000Y-136658000D02*
X100102000Y-136658000D01*
D14*
X100102000Y-136658000D02*
X102185000Y-136658000D01*
%TD*%
D15*
%TO.N,+12V*%
X126201001Y-81471121D02*
X126064668Y-81216060D01*
X125784872Y-80875128D01*
X125443940Y-80595332D01*
X125054974Y-80387425D01*
X124632921Y-80259397D01*
X124194000Y-80216167D01*
X123755080Y-80259397D01*
X123333027Y-80387425D01*
X122944061Y-80595332D01*
X122603129Y-80875128D01*
X122323333Y-81216060D01*
X122115425Y-81605026D01*
X122094000Y-81675655D01*
X122072575Y-81605027D01*
X121864668Y-81216060D01*
X121584872Y-80875128D01*
X121243940Y-80595332D01*
X120854974Y-80387425D01*
X120432921Y-80259397D01*
X119994000Y-80216167D01*
X119555080Y-80259397D01*
X119133027Y-80387425D01*
X118744061Y-80595332D01*
X118403129Y-80875128D01*
X118123333Y-81216060D01*
X117915425Y-81605026D01*
X117894000Y-81675655D01*
X117872575Y-81605027D01*
X117664668Y-81216060D01*
X117384872Y-80875128D01*
X117043940Y-80595332D01*
X116654974Y-80387425D01*
X116232921Y-80259397D01*
X115794000Y-80216167D01*
X115355080Y-80259397D01*
X114933027Y-80387425D01*
X114544061Y-80595332D01*
X114203129Y-80875128D01*
X113923333Y-81216060D01*
X113715425Y-81605026D01*
X113694000Y-81675655D01*
X113672575Y-81605027D01*
X113464668Y-81216060D01*
X113184872Y-80875128D01*
X112843940Y-80595332D01*
X112454974Y-80387425D01*
X112032921Y-80259397D01*
X111594000Y-80216167D01*
X111155080Y-80259397D01*
X110733027Y-80387425D01*
X110344061Y-80595332D01*
X110003129Y-80875128D01*
X109723333Y-81216060D01*
X109515425Y-81605026D01*
X109387397Y-82027079D01*
X109355000Y-82356011D01*
X109355000Y-83575988D01*
X109387397Y-83904920D01*
X109515425Y-84326973D01*
X109723332Y-84715940D01*
X110003128Y-85056872D01*
X110344060Y-85336668D01*
X110733026Y-85544575D01*
X111155079Y-85672603D01*
X111594000Y-85715833D01*
X112032920Y-85672603D01*
X112454973Y-85544575D01*
X112843940Y-85336668D01*
X113184872Y-85056872D01*
X113464668Y-84715940D01*
X113672575Y-84326974D01*
X113694000Y-84256345D01*
X113715425Y-84326973D01*
X113923332Y-84715940D01*
X114203128Y-85056872D01*
X114544060Y-85336668D01*
X114933026Y-85544575D01*
X115355079Y-85672603D01*
X115794000Y-85715833D01*
X116232920Y-85672603D01*
X116654973Y-85544575D01*
X117043940Y-85336668D01*
X117384872Y-85056872D01*
X117664668Y-84715940D01*
X117872575Y-84326974D01*
X117894000Y-84256345D01*
X117915425Y-84326973D01*
X118123332Y-84715940D01*
X118403128Y-85056872D01*
X118744060Y-85336668D01*
X119133026Y-85544575D01*
X119555079Y-85672603D01*
X119994000Y-85715833D01*
X120432920Y-85672603D01*
X120854973Y-85544575D01*
X121243940Y-85336668D01*
X121584872Y-85056872D01*
X121864668Y-84715940D01*
X122072575Y-84326974D01*
X122094000Y-84256345D01*
X122115425Y-84326973D01*
X122323332Y-84715940D01*
X122603128Y-85056872D01*
X122944060Y-85336668D01*
X123333026Y-85544575D01*
X123755079Y-85672603D01*
X124194000Y-85715833D01*
X124632920Y-85672603D01*
X125054973Y-85544575D01*
X125443940Y-85336668D01*
X125784872Y-85056872D01*
X126064668Y-84715940D01*
X126201001Y-84460880D01*
X126201001Y-100234607D01*
X126091668Y-100030060D01*
X125811872Y-99689128D01*
X125470940Y-99409332D01*
X125081973Y-99201425D01*
X124659920Y-99073397D01*
X124221000Y-99030167D01*
X123782079Y-99073397D01*
X123360026Y-99201425D01*
X122971060Y-99409332D01*
X122630128Y-99689128D01*
X122350332Y-100030060D01*
X122142425Y-100419027D01*
X122121000Y-100489655D01*
X122099575Y-100419026D01*
X121891668Y-100030060D01*
X121611872Y-99689128D01*
X121270940Y-99409332D01*
X120881973Y-99201425D01*
X120459920Y-99073397D01*
X120021000Y-99030167D01*
X119582079Y-99073397D01*
X119160026Y-99201425D01*
X118771060Y-99409332D01*
X118430128Y-99689128D01*
X118150332Y-100030060D01*
X117942425Y-100419027D01*
X117921000Y-100489655D01*
X117899575Y-100419026D01*
X117691668Y-100030060D01*
X117411872Y-99689128D01*
X117070940Y-99409332D01*
X116681973Y-99201425D01*
X116259920Y-99073397D01*
X115821000Y-99030167D01*
X115382079Y-99073397D01*
X114960026Y-99201425D01*
X114571060Y-99409332D01*
X114230128Y-99689128D01*
X113950332Y-100030060D01*
X113742425Y-100419027D01*
X113721000Y-100489655D01*
X113699575Y-100419026D01*
X113491668Y-100030060D01*
X113211872Y-99689128D01*
X112870940Y-99409332D01*
X112481973Y-99201425D01*
X112059920Y-99073397D01*
X111621000Y-99030167D01*
X111182079Y-99073397D01*
X110760026Y-99201425D01*
X110371060Y-99409332D01*
X110030128Y-99689128D01*
X109750332Y-100030060D01*
X109542425Y-100419027D01*
X109414397Y-100841080D01*
X109382000Y-101170012D01*
X109382000Y-102389989D01*
X109414397Y-102718921D01*
X109542425Y-103140974D01*
X109750333Y-103529940D01*
X110030129Y-103870872D01*
X110371061Y-104150668D01*
X110760027Y-104358575D01*
X111182080Y-104486603D01*
X111621000Y-104529833D01*
X112059921Y-104486603D01*
X112481974Y-104358575D01*
X112870940Y-104150668D01*
X113211872Y-103870872D01*
X113491668Y-103529940D01*
X113699575Y-103140973D01*
X113721000Y-103070345D01*
X113742425Y-103140974D01*
X113950333Y-103529940D01*
X114230129Y-103870872D01*
X114571061Y-104150668D01*
X114960027Y-104358575D01*
X115382080Y-104486603D01*
X115821000Y-104529833D01*
X116259921Y-104486603D01*
X116681974Y-104358575D01*
X117070940Y-104150668D01*
X117411872Y-103870872D01*
X117691668Y-103529940D01*
X117899575Y-103140973D01*
X117921000Y-103070345D01*
X117942425Y-103140974D01*
X118150333Y-103529940D01*
X118430129Y-103870872D01*
X118771061Y-104150668D01*
X119160027Y-104358575D01*
X119582080Y-104486603D01*
X120021000Y-104529833D01*
X120459921Y-104486603D01*
X120881974Y-104358575D01*
X121270940Y-104150668D01*
X121611872Y-103870872D01*
X121891668Y-103529940D01*
X122099575Y-103140973D01*
X122121000Y-103070345D01*
X122142425Y-103140974D01*
X122350333Y-103529940D01*
X122630129Y-103870872D01*
X122971061Y-104150668D01*
X123360027Y-104358575D01*
X123782080Y-104486603D01*
X124221000Y-104529833D01*
X124659921Y-104486603D01*
X125081974Y-104358575D01*
X125470940Y-104150668D01*
X125811872Y-103870872D01*
X126091668Y-103529940D01*
X126201001Y-103325393D01*
X126201000Y-119698120D01*
X126064668Y-119443060D01*
X125784872Y-119102128D01*
X125443940Y-118822332D01*
X125054974Y-118614425D01*
X124632921Y-118486397D01*
X124194000Y-118443167D01*
X123755080Y-118486397D01*
X123333027Y-118614425D01*
X122944061Y-118822332D01*
X122603129Y-119102128D01*
X122323333Y-119443060D01*
X122115425Y-119832026D01*
X122094000Y-119902655D01*
X122072575Y-119832027D01*
X121864668Y-119443060D01*
X121584872Y-119102128D01*
X121243940Y-118822332D01*
X120854974Y-118614425D01*
X120432921Y-118486397D01*
X119994000Y-118443167D01*
X119555080Y-118486397D01*
X119133027Y-118614425D01*
X118744061Y-118822332D01*
X118403129Y-119102128D01*
X118123333Y-119443060D01*
X117915425Y-119832026D01*
X117894000Y-119902655D01*
X117872575Y-119832027D01*
X117664668Y-119443060D01*
X117384872Y-119102128D01*
X117043940Y-118822332D01*
X116654974Y-118614425D01*
X116232921Y-118486397D01*
X115794000Y-118443167D01*
X115355080Y-118486397D01*
X114933027Y-118614425D01*
X114544061Y-118822332D01*
X114203129Y-119102128D01*
X113923333Y-119443060D01*
X113715425Y-119832026D01*
X113694000Y-119902655D01*
X113672575Y-119832027D01*
X113464668Y-119443060D01*
X113184872Y-119102128D01*
X112843940Y-118822332D01*
X112454974Y-118614425D01*
X112032921Y-118486397D01*
X111594000Y-118443167D01*
X111155080Y-118486397D01*
X110733027Y-118614425D01*
X110344061Y-118822332D01*
X110003129Y-119102128D01*
X109723333Y-119443060D01*
X109515425Y-119832026D01*
X109387397Y-120254079D01*
X109355000Y-120583011D01*
X109355000Y-121802988D01*
X109387397Y-122131920D01*
X109515425Y-122553973D01*
X109723332Y-122942940D01*
X110003128Y-123283872D01*
X110344060Y-123563668D01*
X110733026Y-123771575D01*
X111155079Y-123899603D01*
X111594000Y-123942833D01*
X112032920Y-123899603D01*
X112454973Y-123771575D01*
X112843940Y-123563668D01*
X113184872Y-123283872D01*
X113464668Y-122942940D01*
X113672575Y-122553974D01*
X113694000Y-122483345D01*
X113715425Y-122553973D01*
X113923332Y-122942940D01*
X114203128Y-123283872D01*
X114544060Y-123563668D01*
X114933026Y-123771575D01*
X115355079Y-123899603D01*
X115794000Y-123942833D01*
X116232920Y-123899603D01*
X116654973Y-123771575D01*
X117043940Y-123563668D01*
X117384872Y-123283872D01*
X117664668Y-122942940D01*
X117872575Y-122553974D01*
X117894000Y-122483345D01*
X117915425Y-122553973D01*
X118123332Y-122942940D01*
X118403128Y-123283872D01*
X118744060Y-123563668D01*
X119133026Y-123771575D01*
X119555079Y-123899603D01*
X119994000Y-123942833D01*
X120432920Y-123899603D01*
X120854973Y-123771575D01*
X121243940Y-123563668D01*
X121584872Y-123283872D01*
X121864668Y-122942940D01*
X122072575Y-122553974D01*
X122094000Y-122483345D01*
X122115425Y-122553973D01*
X122323332Y-122942940D01*
X122603128Y-123283872D01*
X122944060Y-123563668D01*
X123333026Y-123771575D01*
X123755079Y-123899603D01*
X124194000Y-123942833D01*
X124632920Y-123899603D01*
X125054973Y-123771575D01*
X125443940Y-123563668D01*
X125784872Y-123283872D01*
X126064668Y-122942940D01*
X126201000Y-122687881D01*
X126201000Y-138385119D01*
X126064668Y-138130060D01*
X125784872Y-137789128D01*
X125443940Y-137509332D01*
X125054973Y-137301425D01*
X124632920Y-137173397D01*
X124194000Y-137130167D01*
X123755079Y-137173397D01*
X123333026Y-137301425D01*
X122944060Y-137509332D01*
X122603128Y-137789128D01*
X122323332Y-138130060D01*
X122115425Y-138519027D01*
X122094000Y-138589655D01*
X122072575Y-138519026D01*
X121864668Y-138130060D01*
X121584872Y-137789128D01*
X121243940Y-137509332D01*
X120854973Y-137301425D01*
X120432920Y-137173397D01*
X119994000Y-137130167D01*
X119555079Y-137173397D01*
X119133026Y-137301425D01*
X118744060Y-137509332D01*
X118403128Y-137789128D01*
X118123332Y-138130060D01*
X117915425Y-138519027D01*
X117894000Y-138589655D01*
X117872575Y-138519026D01*
X117664668Y-138130060D01*
X117384872Y-137789128D01*
X117043940Y-137509332D01*
X116654973Y-137301425D01*
X116232920Y-137173397D01*
X115794000Y-137130167D01*
X115355079Y-137173397D01*
X114933026Y-137301425D01*
X114544060Y-137509332D01*
X114203128Y-137789128D01*
X113923332Y-138130060D01*
X113715425Y-138519027D01*
X113694000Y-138589655D01*
X113672575Y-138519026D01*
X113464668Y-138130060D01*
X113184872Y-137789128D01*
X112843940Y-137509332D01*
X112454973Y-137301425D01*
X112032920Y-137173397D01*
X111594000Y-137130167D01*
X111155079Y-137173397D01*
X110733026Y-137301425D01*
X110344060Y-137509332D01*
X110003128Y-137789128D01*
X109723332Y-138130060D01*
X109515425Y-138519027D01*
X109387397Y-138941080D01*
X109355000Y-139270012D01*
X109355000Y-140489989D01*
X109387397Y-140818921D01*
X109515425Y-141240974D01*
X109723333Y-141629940D01*
X110003129Y-141970872D01*
X110344061Y-142250668D01*
X110733027Y-142458575D01*
X111155080Y-142586603D01*
X111594000Y-142629833D01*
X112032921Y-142586603D01*
X112454974Y-142458575D01*
X112843940Y-142250668D01*
X113184872Y-141970872D01*
X113464668Y-141629940D01*
X113672575Y-141240973D01*
X113694000Y-141170345D01*
X113715425Y-141240974D01*
X113923333Y-141629940D01*
X114203129Y-141970872D01*
X114544061Y-142250668D01*
X114933027Y-142458575D01*
X115355080Y-142586603D01*
X115794000Y-142629833D01*
X116232921Y-142586603D01*
X116654974Y-142458575D01*
X117043940Y-142250668D01*
X117384872Y-141970872D01*
X117664668Y-141629940D01*
X117872575Y-141240973D01*
X117894000Y-141170345D01*
X117915425Y-141240974D01*
X118123333Y-141629940D01*
X118403129Y-141970872D01*
X118744061Y-142250668D01*
X119133027Y-142458575D01*
X119555080Y-142586603D01*
X119994000Y-142629833D01*
X120432921Y-142586603D01*
X120854974Y-142458575D01*
X121243940Y-142250668D01*
X121584872Y-141970872D01*
X121864668Y-141629940D01*
X122072575Y-141240973D01*
X122094000Y-141170345D01*
X122115425Y-141240974D01*
X122323333Y-141629940D01*
X122603129Y-141970872D01*
X122944061Y-142250668D01*
X123333027Y-142458575D01*
X123755080Y-142586603D01*
X124194000Y-142629833D01*
X124632921Y-142586603D01*
X125054974Y-142458575D01*
X125443940Y-142250668D01*
X125784872Y-141970872D01*
X126064668Y-141629940D01*
X126201000Y-141374880D01*
X126201000Y-144926000D01*
X102245000Y-144926000D01*
X102245000Y-137529700D01*
X102256413Y-137492076D01*
X102274543Y-137308000D01*
X102256413Y-137123924D01*
X102202720Y-136946922D01*
X102115527Y-136783796D01*
X101998186Y-136640814D01*
X101855204Y-136523473D01*
X101692078Y-136436280D01*
X101515076Y-136382587D01*
X101377126Y-136369000D01*
X99302333Y-136369000D01*
X99298616Y-104551629D01*
X99313744Y-104379688D01*
X99354320Y-104229288D01*
X99420573Y-104088288D01*
X99510452Y-103961055D01*
X99621200Y-103851490D01*
X99749396Y-103762979D01*
X99891095Y-103698246D01*
X100041928Y-103659286D01*
X100214005Y-103646006D01*
X101681603Y-103661938D01*
X101715207Y-103660819D01*
X101938471Y-103643499D01*
X102004732Y-103632418D01*
X102221483Y-103576153D01*
X102284767Y-103553606D01*
X102488267Y-103460145D01*
X102546607Y-103426834D01*
X102730527Y-103299084D01*
X102782110Y-103256043D01*
X102940733Y-103097974D01*
X102983953Y-103046543D01*
X103112347Y-102863071D01*
X103145863Y-102804848D01*
X103240036Y-102601678D01*
X103262804Y-102538474D01*
X103319829Y-102321921D01*
X103331142Y-102255699D01*
X103349244Y-102032497D01*
X103350481Y-101998897D01*
X103334164Y-99779704D01*
X103411075Y-99685988D01*
X103529003Y-99465359D01*
X103586225Y-99276725D01*
X103601623Y-99225964D01*
X103606904Y-99172345D01*
X103620000Y-99039380D01*
X103620000Y-99039373D01*
X103626143Y-98977000D01*
X103620000Y-98914627D01*
X103620000Y-97388372D01*
X103626143Y-97325999D01*
X103620000Y-97263626D01*
X103620000Y-97263620D01*
X103601623Y-97077037D01*
X103589453Y-97036916D01*
X103566354Y-96960771D01*
X103529003Y-96837641D01*
X103411075Y-96617012D01*
X103310005Y-96493858D01*
X103170822Y-77564000D01*
X126201001Y-77564000D01*
X126201001Y-81471121D01*
%TA.AperFunction,Conductor*%
D16*
G36*
X126201001Y-81471121D02*
G01*
X126064668Y-81216060D01*
X125784872Y-80875128D01*
X125443940Y-80595332D01*
X125054974Y-80387425D01*
X124632921Y-80259397D01*
X124194000Y-80216167D01*
X123755080Y-80259397D01*
X123333027Y-80387425D01*
X122944061Y-80595332D01*
X122603129Y-80875128D01*
X122323333Y-81216060D01*
X122115425Y-81605026D01*
X122094000Y-81675655D01*
X122072575Y-81605027D01*
X121864668Y-81216060D01*
X121584872Y-80875128D01*
X121243940Y-80595332D01*
X120854974Y-80387425D01*
X120432921Y-80259397D01*
X119994000Y-80216167D01*
X119555080Y-80259397D01*
X119133027Y-80387425D01*
X118744061Y-80595332D01*
X118403129Y-80875128D01*
X118123333Y-81216060D01*
X117915425Y-81605026D01*
X117894000Y-81675655D01*
X117872575Y-81605027D01*
X117664668Y-81216060D01*
X117384872Y-80875128D01*
X117043940Y-80595332D01*
X116654974Y-80387425D01*
X116232921Y-80259397D01*
X115794000Y-80216167D01*
X115355080Y-80259397D01*
X114933027Y-80387425D01*
X114544061Y-80595332D01*
X114203129Y-80875128D01*
X113923333Y-81216060D01*
X113715425Y-81605026D01*
X113694000Y-81675655D01*
X113672575Y-81605027D01*
X113464668Y-81216060D01*
X113184872Y-80875128D01*
X112843940Y-80595332D01*
X112454974Y-80387425D01*
X112032921Y-80259397D01*
X111594000Y-80216167D01*
X111155080Y-80259397D01*
X110733027Y-80387425D01*
X110344061Y-80595332D01*
X110003129Y-80875128D01*
X109723333Y-81216060D01*
X109515425Y-81605026D01*
X109387397Y-82027079D01*
X109355000Y-82356011D01*
X109355000Y-83575988D01*
X109387397Y-83904920D01*
X109515425Y-84326973D01*
X109723332Y-84715940D01*
X110003128Y-85056872D01*
X110344060Y-85336668D01*
X110733026Y-85544575D01*
X111155079Y-85672603D01*
X111594000Y-85715833D01*
X112032920Y-85672603D01*
X112454973Y-85544575D01*
X112843940Y-85336668D01*
X113184872Y-85056872D01*
X113464668Y-84715940D01*
X113672575Y-84326974D01*
X113694000Y-84256345D01*
X113715425Y-84326973D01*
X113923332Y-84715940D01*
X114203128Y-85056872D01*
X114544060Y-85336668D01*
X114933026Y-85544575D01*
X115355079Y-85672603D01*
X115794000Y-85715833D01*
X116232920Y-85672603D01*
X116654973Y-85544575D01*
X117043940Y-85336668D01*
X117384872Y-85056872D01*
X117664668Y-84715940D01*
X117872575Y-84326974D01*
X117894000Y-84256345D01*
X117915425Y-84326973D01*
X118123332Y-84715940D01*
X118403128Y-85056872D01*
X118744060Y-85336668D01*
X119133026Y-85544575D01*
X119555079Y-85672603D01*
X119994000Y-85715833D01*
X120432920Y-85672603D01*
X120854973Y-85544575D01*
X121243940Y-85336668D01*
X121584872Y-85056872D01*
X121864668Y-84715940D01*
X122072575Y-84326974D01*
X122094000Y-84256345D01*
X122115425Y-84326973D01*
X122323332Y-84715940D01*
X122603128Y-85056872D01*
X122944060Y-85336668D01*
X123333026Y-85544575D01*
X123755079Y-85672603D01*
X124194000Y-85715833D01*
X124632920Y-85672603D01*
X125054973Y-85544575D01*
X125443940Y-85336668D01*
X125784872Y-85056872D01*
X126064668Y-84715940D01*
X126201001Y-84460880D01*
X126201001Y-100234607D01*
X126091668Y-100030060D01*
X125811872Y-99689128D01*
X125470940Y-99409332D01*
X125081973Y-99201425D01*
X124659920Y-99073397D01*
X124221000Y-99030167D01*
X123782079Y-99073397D01*
X123360026Y-99201425D01*
X122971060Y-99409332D01*
X122630128Y-99689128D01*
X122350332Y-100030060D01*
X122142425Y-100419027D01*
X122121000Y-100489655D01*
X122099575Y-100419026D01*
X121891668Y-100030060D01*
X121611872Y-99689128D01*
X121270940Y-99409332D01*
X120881973Y-99201425D01*
X120459920Y-99073397D01*
X120021000Y-99030167D01*
X119582079Y-99073397D01*
X119160026Y-99201425D01*
X118771060Y-99409332D01*
X118430128Y-99689128D01*
X118150332Y-100030060D01*
X117942425Y-100419027D01*
X117921000Y-100489655D01*
X117899575Y-100419026D01*
X117691668Y-100030060D01*
X117411872Y-99689128D01*
X117070940Y-99409332D01*
X116681973Y-99201425D01*
X116259920Y-99073397D01*
X115821000Y-99030167D01*
X115382079Y-99073397D01*
X114960026Y-99201425D01*
X114571060Y-99409332D01*
X114230128Y-99689128D01*
X113950332Y-100030060D01*
X113742425Y-100419027D01*
X113721000Y-100489655D01*
X113699575Y-100419026D01*
X113491668Y-100030060D01*
X113211872Y-99689128D01*
X112870940Y-99409332D01*
X112481973Y-99201425D01*
X112059920Y-99073397D01*
X111621000Y-99030167D01*
X111182079Y-99073397D01*
X110760026Y-99201425D01*
X110371060Y-99409332D01*
X110030128Y-99689128D01*
X109750332Y-100030060D01*
X109542425Y-100419027D01*
X109414397Y-100841080D01*
X109382000Y-101170012D01*
X109382000Y-102389989D01*
X109414397Y-102718921D01*
X109542425Y-103140974D01*
X109750333Y-103529940D01*
X110030129Y-103870872D01*
X110371061Y-104150668D01*
X110760027Y-104358575D01*
X111182080Y-104486603D01*
X111621000Y-104529833D01*
X112059921Y-104486603D01*
X112481974Y-104358575D01*
X112870940Y-104150668D01*
X113211872Y-103870872D01*
X113491668Y-103529940D01*
X113699575Y-103140973D01*
X113721000Y-103070345D01*
X113742425Y-103140974D01*
X113950333Y-103529940D01*
X114230129Y-103870872D01*
X114571061Y-104150668D01*
X114960027Y-104358575D01*
X115382080Y-104486603D01*
X115821000Y-104529833D01*
X116259921Y-104486603D01*
X116681974Y-104358575D01*
X117070940Y-104150668D01*
X117411872Y-103870872D01*
X117691668Y-103529940D01*
X117899575Y-103140973D01*
X117921000Y-103070345D01*
X117942425Y-103140974D01*
X118150333Y-103529940D01*
X118430129Y-103870872D01*
X118771061Y-104150668D01*
X119160027Y-104358575D01*
X119582080Y-104486603D01*
X120021000Y-104529833D01*
X120459921Y-104486603D01*
X120881974Y-104358575D01*
X121270940Y-104150668D01*
X121611872Y-103870872D01*
X121891668Y-103529940D01*
X122099575Y-103140973D01*
X122121000Y-103070345D01*
X122142425Y-103140974D01*
X122350333Y-103529940D01*
X122630129Y-103870872D01*
X122971061Y-104150668D01*
X123360027Y-104358575D01*
X123782080Y-104486603D01*
X124221000Y-104529833D01*
X124659921Y-104486603D01*
X125081974Y-104358575D01*
X125470940Y-104150668D01*
X125811872Y-103870872D01*
X126091668Y-103529940D01*
X126201001Y-103325393D01*
X126201000Y-119698120D01*
X126064668Y-119443060D01*
X125784872Y-119102128D01*
X125443940Y-118822332D01*
X125054974Y-118614425D01*
X124632921Y-118486397D01*
X124194000Y-118443167D01*
X123755080Y-118486397D01*
X123333027Y-118614425D01*
X122944061Y-118822332D01*
X122603129Y-119102128D01*
X122323333Y-119443060D01*
X122115425Y-119832026D01*
X122094000Y-119902655D01*
X122072575Y-119832027D01*
X121864668Y-119443060D01*
X121584872Y-119102128D01*
X121243940Y-118822332D01*
X120854974Y-118614425D01*
X120432921Y-118486397D01*
X119994000Y-118443167D01*
X119555080Y-118486397D01*
X119133027Y-118614425D01*
X118744061Y-118822332D01*
X118403129Y-119102128D01*
X118123333Y-119443060D01*
X117915425Y-119832026D01*
X117894000Y-119902655D01*
X117872575Y-119832027D01*
X117664668Y-119443060D01*
X117384872Y-119102128D01*
X117043940Y-118822332D01*
X116654974Y-118614425D01*
X116232921Y-118486397D01*
X115794000Y-118443167D01*
X115355080Y-118486397D01*
X114933027Y-118614425D01*
X114544061Y-118822332D01*
X114203129Y-119102128D01*
X113923333Y-119443060D01*
X113715425Y-119832026D01*
X113694000Y-119902655D01*
X113672575Y-119832027D01*
X113464668Y-119443060D01*
X113184872Y-119102128D01*
X112843940Y-118822332D01*
X112454974Y-118614425D01*
X112032921Y-118486397D01*
X111594000Y-118443167D01*
X111155080Y-118486397D01*
X110733027Y-118614425D01*
X110344061Y-118822332D01*
X110003129Y-119102128D01*
X109723333Y-119443060D01*
X109515425Y-119832026D01*
X109387397Y-120254079D01*
X109355000Y-120583011D01*
X109355000Y-121802988D01*
X109387397Y-122131920D01*
X109515425Y-122553973D01*
X109723332Y-122942940D01*
X110003128Y-123283872D01*
X110344060Y-123563668D01*
X110733026Y-123771575D01*
X111155079Y-123899603D01*
X111594000Y-123942833D01*
X112032920Y-123899603D01*
X112454973Y-123771575D01*
X112843940Y-123563668D01*
X113184872Y-123283872D01*
X113464668Y-122942940D01*
X113672575Y-122553974D01*
X113694000Y-122483345D01*
X113715425Y-122553973D01*
X113923332Y-122942940D01*
X114203128Y-123283872D01*
X114544060Y-123563668D01*
X114933026Y-123771575D01*
X115355079Y-123899603D01*
X115794000Y-123942833D01*
X116232920Y-123899603D01*
X116654973Y-123771575D01*
X117043940Y-123563668D01*
X117384872Y-123283872D01*
X117664668Y-122942940D01*
X117872575Y-122553974D01*
X117894000Y-122483345D01*
X117915425Y-122553973D01*
X118123332Y-122942940D01*
X118403128Y-123283872D01*
X118744060Y-123563668D01*
X119133026Y-123771575D01*
X119555079Y-123899603D01*
X119994000Y-123942833D01*
X120432920Y-123899603D01*
X120854973Y-123771575D01*
X121243940Y-123563668D01*
X121584872Y-123283872D01*
X121864668Y-122942940D01*
X122072575Y-122553974D01*
X122094000Y-122483345D01*
X122115425Y-122553973D01*
X122323332Y-122942940D01*
X122603128Y-123283872D01*
X122944060Y-123563668D01*
X123333026Y-123771575D01*
X123755079Y-123899603D01*
X124194000Y-123942833D01*
X124632920Y-123899603D01*
X125054973Y-123771575D01*
X125443940Y-123563668D01*
X125784872Y-123283872D01*
X126064668Y-122942940D01*
X126201000Y-122687881D01*
X126201000Y-138385119D01*
X126064668Y-138130060D01*
X125784872Y-137789128D01*
X125443940Y-137509332D01*
X125054973Y-137301425D01*
X124632920Y-137173397D01*
X124194000Y-137130167D01*
X123755079Y-137173397D01*
X123333026Y-137301425D01*
X122944060Y-137509332D01*
X122603128Y-137789128D01*
X122323332Y-138130060D01*
X122115425Y-138519027D01*
X122094000Y-138589655D01*
X122072575Y-138519026D01*
X121864668Y-138130060D01*
X121584872Y-137789128D01*
X121243940Y-137509332D01*
X120854973Y-137301425D01*
X120432920Y-137173397D01*
X119994000Y-137130167D01*
X119555079Y-137173397D01*
X119133026Y-137301425D01*
X118744060Y-137509332D01*
X118403128Y-137789128D01*
X118123332Y-138130060D01*
X117915425Y-138519027D01*
X117894000Y-138589655D01*
X117872575Y-138519026D01*
X117664668Y-138130060D01*
X117384872Y-137789128D01*
X117043940Y-137509332D01*
X116654973Y-137301425D01*
X116232920Y-137173397D01*
X115794000Y-137130167D01*
X115355079Y-137173397D01*
X114933026Y-137301425D01*
X114544060Y-137509332D01*
X114203128Y-137789128D01*
X113923332Y-138130060D01*
X113715425Y-138519027D01*
X113694000Y-138589655D01*
X113672575Y-138519026D01*
X113464668Y-138130060D01*
X113184872Y-137789128D01*
X112843940Y-137509332D01*
X112454973Y-137301425D01*
X112032920Y-137173397D01*
X111594000Y-137130167D01*
X111155079Y-137173397D01*
X110733026Y-137301425D01*
X110344060Y-137509332D01*
X110003128Y-137789128D01*
X109723332Y-138130060D01*
X109515425Y-138519027D01*
X109387397Y-138941080D01*
X109355000Y-139270012D01*
X109355000Y-140489989D01*
X109387397Y-140818921D01*
X109515425Y-141240974D01*
X109723333Y-141629940D01*
X110003129Y-141970872D01*
X110344061Y-142250668D01*
X110733027Y-142458575D01*
X111155080Y-142586603D01*
X111594000Y-142629833D01*
X112032921Y-142586603D01*
X112454974Y-142458575D01*
X112843940Y-142250668D01*
X113184872Y-141970872D01*
X113464668Y-141629940D01*
X113672575Y-141240973D01*
X113694000Y-141170345D01*
X113715425Y-141240974D01*
X113923333Y-141629940D01*
X114203129Y-141970872D01*
X114544061Y-142250668D01*
X114933027Y-142458575D01*
X115355080Y-142586603D01*
X115794000Y-142629833D01*
X116232921Y-142586603D01*
X116654974Y-142458575D01*
X117043940Y-142250668D01*
X117384872Y-141970872D01*
X117664668Y-141629940D01*
X117872575Y-141240973D01*
X117894000Y-141170345D01*
X117915425Y-141240974D01*
X118123333Y-141629940D01*
X118403129Y-141970872D01*
X118744061Y-142250668D01*
X119133027Y-142458575D01*
X119555080Y-142586603D01*
X119994000Y-142629833D01*
X120432921Y-142586603D01*
X120854974Y-142458575D01*
X121243940Y-142250668D01*
X121584872Y-141970872D01*
X121864668Y-141629940D01*
X122072575Y-141240973D01*
X122094000Y-141170345D01*
X122115425Y-141240974D01*
X122323333Y-141629940D01*
X122603129Y-141970872D01*
X122944061Y-142250668D01*
X123333027Y-142458575D01*
X123755080Y-142586603D01*
X124194000Y-142629833D01*
X124632921Y-142586603D01*
X125054974Y-142458575D01*
X125443940Y-142250668D01*
X125784872Y-141970872D01*
X126064668Y-141629940D01*
X126201000Y-141374880D01*
X126201000Y-144926000D01*
X102245000Y-144926000D01*
X102245000Y-137529700D01*
X102256413Y-137492076D01*
X102274543Y-137308000D01*
X102256413Y-137123924D01*
X102202720Y-136946922D01*
X102115527Y-136783796D01*
X101998186Y-136640814D01*
X101855204Y-136523473D01*
X101692078Y-136436280D01*
X101515076Y-136382587D01*
X101377126Y-136369000D01*
X99302333Y-136369000D01*
X99298616Y-104551629D01*
X99313744Y-104379688D01*
X99354320Y-104229288D01*
X99420573Y-104088288D01*
X99510452Y-103961055D01*
X99621200Y-103851490D01*
X99749396Y-103762979D01*
X99891095Y-103698246D01*
X100041928Y-103659286D01*
X100214005Y-103646006D01*
X101681603Y-103661938D01*
X101715207Y-103660819D01*
X101938471Y-103643499D01*
X102004732Y-103632418D01*
X102221483Y-103576153D01*
X102284767Y-103553606D01*
X102488267Y-103460145D01*
X102546607Y-103426834D01*
X102730527Y-103299084D01*
X102782110Y-103256043D01*
X102940733Y-103097974D01*
X102983953Y-103046543D01*
X103112347Y-102863071D01*
X103145863Y-102804848D01*
X103240036Y-102601678D01*
X103262804Y-102538474D01*
X103319829Y-102321921D01*
X103331142Y-102255699D01*
X103349244Y-102032497D01*
X103350481Y-101998897D01*
X103334164Y-99779704D01*
X103411075Y-99685988D01*
X103529003Y-99465359D01*
X103586225Y-99276725D01*
X103601623Y-99225964D01*
X103606904Y-99172345D01*
X103620000Y-99039380D01*
X103620000Y-99039373D01*
X103626143Y-98977000D01*
X103620000Y-98914627D01*
X103620000Y-97388372D01*
X103626143Y-97325999D01*
X103620000Y-97263626D01*
X103620000Y-97263620D01*
X103601623Y-97077037D01*
X103589453Y-97036916D01*
X103566354Y-96960771D01*
X103529003Y-96837641D01*
X103411075Y-96617012D01*
X103310005Y-96493858D01*
X103170822Y-77564000D01*
X126201001Y-77564000D01*
X126201001Y-81471121D01*
G37*
%TD.AperFunction*%
%TD*%
D14*
%TO.N,GND*%
X101588000Y-96425916D02*
X101571610Y-96613256D01*
X101525817Y-96784159D01*
X101512415Y-96812900D01*
X101419931Y-96737471D01*
X101358620Y-96696735D01*
X101297908Y-96655165D01*
X101287943Y-96649777D01*
X101287935Y-96649772D01*
X101287927Y-96649769D01*
X101124230Y-96562728D01*
X101056156Y-96534670D01*
X100988539Y-96505689D01*
X100977718Y-96502340D01*
X100977713Y-96502338D01*
X100977708Y-96502337D01*
X100800214Y-96448749D01*
X100728069Y-96434464D01*
X100656037Y-96419153D01*
X100644764Y-96417969D01*
X100644758Y-96417968D01*
X100644752Y-96417968D01*
X100460239Y-96399876D01*
X100460234Y-96399876D01*
X100420881Y-96396000D01*
X99175000Y-96396000D01*
X99175000Y-88419632D01*
X99238402Y-88301015D01*
X99281974Y-88157378D01*
X99296686Y-88008000D01*
X99296686Y-87308000D01*
X99281974Y-87158622D01*
X99238402Y-87014985D01*
X99175000Y-86896368D01*
X99175000Y-86820000D01*
X101370881Y-86820000D01*
X101490180Y-86808250D01*
X101588000Y-86778577D01*
X101588000Y-96425916D01*
%TA.AperFunction,Conductor*%
D16*
G36*
X101588000Y-96425916D02*
G01*
X101571610Y-96613256D01*
X101525817Y-96784159D01*
X101512415Y-96812900D01*
X101419931Y-96737471D01*
X101358620Y-96696735D01*
X101297908Y-96655165D01*
X101287943Y-96649777D01*
X101287935Y-96649772D01*
X101287927Y-96649769D01*
X101124230Y-96562728D01*
X101056156Y-96534670D01*
X100988539Y-96505689D01*
X100977718Y-96502340D01*
X100977713Y-96502338D01*
X100977708Y-96502337D01*
X100800214Y-96448749D01*
X100728069Y-96434464D01*
X100656037Y-96419153D01*
X100644764Y-96417969D01*
X100644758Y-96417968D01*
X100644752Y-96417968D01*
X100460239Y-96399876D01*
X100460234Y-96399876D01*
X100420881Y-96396000D01*
X99175000Y-96396000D01*
X99175000Y-88419632D01*
X99238402Y-88301015D01*
X99281974Y-88157378D01*
X99296686Y-88008000D01*
X99296686Y-87308000D01*
X99281974Y-87158622D01*
X99238402Y-87014985D01*
X99175000Y-86896368D01*
X99175000Y-86820000D01*
X101370881Y-86820000D01*
X101490180Y-86808250D01*
X101588000Y-86778577D01*
X101588000Y-96425916D01*
G37*
%TD.AperFunction*%
%TD*%
M02*
