%TF.GenerationSoftware,KiCad,Pcbnew,(5.1.9)-1*%
%TF.CreationDate,2021-05-18T23:24:29+08:00*%
%TF.ProjectId,KCORES CSPS to ATX Converter,4b434f52-4553-4204-9353-505320746f20,1.0*%
%TF.SameCoordinates,Original*%
%TF.FileFunction,Soldermask,Top*%
%TF.FilePolarity,Negative*%
%FSLAX46Y46*%
G04 Gerber Fmt 4.6, Leading zero omitted, Abs format (unit mm)*
G04 Created by KiCad (PCBNEW (5.1.9)-1) date 2021-05-18 23:24:29*
%MOMM*%
%LPD*%
G01*
G04 APERTURE LIST*
%ADD10C,0.150000*%
%ADD11C,0.300000*%
%ADD12C,4.200000*%
%ADD13O,1.800000X1.800000*%
%ADD14O,2.180000X1.800000*%
%ADD15C,1.800000*%
%ADD16C,2.700000*%
%ADD17O,3.800000X2.800000*%
%ADD18O,2.800000X3.800000*%
%ADD19O,1.700000X1.700000*%
%ADD20C,1.700000*%
%ADD21O,2.300000X2.300000*%
G04 APERTURE END LIST*
D10*
X119427142Y-131757142D02*
X119474761Y-131804761D01*
X119522380Y-131947619D01*
X119522380Y-132042857D01*
X119474761Y-132185714D01*
X119379523Y-132280952D01*
X119284285Y-132328571D01*
X119093809Y-132376190D01*
X118950952Y-132376190D01*
X118760476Y-132328571D01*
X118665238Y-132280952D01*
X118570000Y-132185714D01*
X118522380Y-132042857D01*
X118522380Y-131947619D01*
X118570000Y-131804761D01*
X118617619Y-131757142D01*
X119474761Y-131376190D02*
X119522380Y-131233333D01*
X119522380Y-130995238D01*
X119474761Y-130900000D01*
X119427142Y-130852380D01*
X119331904Y-130804761D01*
X119236666Y-130804761D01*
X119141428Y-130852380D01*
X119093809Y-130900000D01*
X119046190Y-130995238D01*
X118998571Y-131185714D01*
X118950952Y-131280952D01*
X118903333Y-131328571D01*
X118808095Y-131376190D01*
X118712857Y-131376190D01*
X118617619Y-131328571D01*
X118570000Y-131280952D01*
X118522380Y-131185714D01*
X118522380Y-130947619D01*
X118570000Y-130804761D01*
X119522380Y-130376190D02*
X118522380Y-130376190D01*
X118522380Y-129995238D01*
X118570000Y-129900000D01*
X118617619Y-129852380D01*
X118712857Y-129804761D01*
X118855714Y-129804761D01*
X118950952Y-129852380D01*
X118998571Y-129900000D01*
X119046190Y-129995238D01*
X119046190Y-130376190D01*
X119474761Y-129423809D02*
X119522380Y-129280952D01*
X119522380Y-129042857D01*
X119474761Y-128947619D01*
X119427142Y-128900000D01*
X119331904Y-128852380D01*
X119236666Y-128852380D01*
X119141428Y-128900000D01*
X119093809Y-128947619D01*
X119046190Y-129042857D01*
X118998571Y-129233333D01*
X118950952Y-129328571D01*
X118903333Y-129376190D01*
X118808095Y-129423809D01*
X118712857Y-129423809D01*
X118617619Y-129376190D01*
X118570000Y-129328571D01*
X118522380Y-129233333D01*
X118522380Y-128995238D01*
X118570000Y-128852380D01*
X118855714Y-127804761D02*
X118855714Y-127423809D01*
X118522380Y-127661904D02*
X119379523Y-127661904D01*
X119474761Y-127614285D01*
X119522380Y-127519047D01*
X119522380Y-127423809D01*
X119522380Y-126947619D02*
X119474761Y-127042857D01*
X119427142Y-127090476D01*
X119331904Y-127138095D01*
X119046190Y-127138095D01*
X118950952Y-127090476D01*
X118903333Y-127042857D01*
X118855714Y-126947619D01*
X118855714Y-126804761D01*
X118903333Y-126709523D01*
X118950952Y-126661904D01*
X119046190Y-126614285D01*
X119331904Y-126614285D01*
X119427142Y-126661904D01*
X119474761Y-126709523D01*
X119522380Y-126804761D01*
X119522380Y-126947619D01*
X119236666Y-125471428D02*
X119236666Y-124995238D01*
X119522380Y-125566666D02*
X118522380Y-125233333D01*
X119522380Y-124900000D01*
X118522380Y-124709523D02*
X118522380Y-124138095D01*
X119522380Y-124423809D02*
X118522380Y-124423809D01*
X118522380Y-123900000D02*
X119522380Y-123233333D01*
X118522380Y-123233333D02*
X119522380Y-123900000D01*
X119427142Y-121519047D02*
X119474761Y-121566666D01*
X119522380Y-121709523D01*
X119522380Y-121804761D01*
X119474761Y-121947619D01*
X119379523Y-122042857D01*
X119284285Y-122090476D01*
X119093809Y-122138095D01*
X118950952Y-122138095D01*
X118760476Y-122090476D01*
X118665238Y-122042857D01*
X118570000Y-121947619D01*
X118522380Y-121804761D01*
X118522380Y-121709523D01*
X118570000Y-121566666D01*
X118617619Y-121519047D01*
X119522380Y-120947619D02*
X119474761Y-121042857D01*
X119427142Y-121090476D01*
X119331904Y-121138095D01*
X119046190Y-121138095D01*
X118950952Y-121090476D01*
X118903333Y-121042857D01*
X118855714Y-120947619D01*
X118855714Y-120804761D01*
X118903333Y-120709523D01*
X118950952Y-120661904D01*
X119046190Y-120614285D01*
X119331904Y-120614285D01*
X119427142Y-120661904D01*
X119474761Y-120709523D01*
X119522380Y-120804761D01*
X119522380Y-120947619D01*
X118855714Y-120185714D02*
X119522380Y-120185714D01*
X118950952Y-120185714D02*
X118903333Y-120138095D01*
X118855714Y-120042857D01*
X118855714Y-119900000D01*
X118903333Y-119804761D01*
X118998571Y-119757142D01*
X119522380Y-119757142D01*
X118855714Y-119376190D02*
X119522380Y-119138095D01*
X118855714Y-118900000D01*
X119474761Y-118138095D02*
X119522380Y-118233333D01*
X119522380Y-118423809D01*
X119474761Y-118519047D01*
X119379523Y-118566666D01*
X118998571Y-118566666D01*
X118903333Y-118519047D01*
X118855714Y-118423809D01*
X118855714Y-118233333D01*
X118903333Y-118138095D01*
X118998571Y-118090476D01*
X119093809Y-118090476D01*
X119189047Y-118566666D01*
X119522380Y-117661904D02*
X118855714Y-117661904D01*
X119046190Y-117661904D02*
X118950952Y-117614285D01*
X118903333Y-117566666D01*
X118855714Y-117471428D01*
X118855714Y-117376190D01*
X118855714Y-117185714D02*
X118855714Y-116804761D01*
X118522380Y-117042857D02*
X119379523Y-117042857D01*
X119474761Y-116995238D01*
X119522380Y-116900000D01*
X119522380Y-116804761D01*
X119474761Y-116090476D02*
X119522380Y-116185714D01*
X119522380Y-116376190D01*
X119474761Y-116471428D01*
X119379523Y-116519047D01*
X118998571Y-116519047D01*
X118903333Y-116471428D01*
X118855714Y-116376190D01*
X118855714Y-116185714D01*
X118903333Y-116090476D01*
X118998571Y-116042857D01*
X119093809Y-116042857D01*
X119189047Y-116519047D01*
X119522380Y-115614285D02*
X118855714Y-115614285D01*
X119046190Y-115614285D02*
X118950952Y-115566666D01*
X118903333Y-115519047D01*
X118855714Y-115423809D01*
X118855714Y-115328571D01*
D11*
X117680952Y-130685714D02*
X115180952Y-130685714D01*
X117680952Y-129257142D02*
X116252380Y-130328571D01*
X115180952Y-129257142D02*
X116609523Y-130685714D01*
X117442857Y-126757142D02*
X117561904Y-126876190D01*
X117680952Y-127233333D01*
X117680952Y-127471428D01*
X117561904Y-127828571D01*
X117323809Y-128066666D01*
X117085714Y-128185714D01*
X116609523Y-128304761D01*
X116252380Y-128304761D01*
X115776190Y-128185714D01*
X115538095Y-128066666D01*
X115300000Y-127828571D01*
X115180952Y-127471428D01*
X115180952Y-127233333D01*
X115300000Y-126876190D01*
X115419047Y-126757142D01*
X115180952Y-125209523D02*
X115180952Y-124733333D01*
X115300000Y-124495238D01*
X115538095Y-124257142D01*
X116014285Y-124138095D01*
X116847619Y-124138095D01*
X117323809Y-124257142D01*
X117561904Y-124495238D01*
X117680952Y-124733333D01*
X117680952Y-125209523D01*
X117561904Y-125447619D01*
X117323809Y-125685714D01*
X116847619Y-125804761D01*
X116014285Y-125804761D01*
X115538095Y-125685714D01*
X115300000Y-125447619D01*
X115180952Y-125209523D01*
X117680952Y-121638095D02*
X116490476Y-122471428D01*
X117680952Y-123066666D02*
X115180952Y-123066666D01*
X115180952Y-122114285D01*
X115300000Y-121876190D01*
X115419047Y-121757142D01*
X115657142Y-121638095D01*
X116014285Y-121638095D01*
X116252380Y-121757142D01*
X116371428Y-121876190D01*
X116490476Y-122114285D01*
X116490476Y-123066666D01*
X116371428Y-120566666D02*
X116371428Y-119733333D01*
X117680952Y-119376190D02*
X117680952Y-120566666D01*
X115180952Y-120566666D01*
X115180952Y-119376190D01*
X117561904Y-118423809D02*
X117680952Y-118066666D01*
X117680952Y-117471428D01*
X117561904Y-117233333D01*
X117442857Y-117114285D01*
X117204761Y-116995238D01*
X116966666Y-116995238D01*
X116728571Y-117114285D01*
X116609523Y-117233333D01*
X116490476Y-117471428D01*
X116371428Y-117947619D01*
X116252380Y-118185714D01*
X116133333Y-118304761D01*
X115895238Y-118423809D01*
X115657142Y-118423809D01*
X115419047Y-118304761D01*
X115300000Y-118185714D01*
X115180952Y-117947619D01*
X115180952Y-117352380D01*
X115300000Y-116995238D01*
D12*
X164850000Y-96600000D02*
X176400000Y-96600000D01*
X157500000Y-89250000D02*
X164850000Y-96600000D01*
X108150000Y-89250000D02*
X157500000Y-89250000D01*
%TO.C,U3*%
G36*
G01*
X145620000Y-131700000D02*
X142120000Y-131700000D01*
G75*
G02*
X142070000Y-131650000I0J50000D01*
G01*
X142070000Y-129650000D01*
G75*
G02*
X142120000Y-129600000I50000J0D01*
G01*
X145620000Y-129600000D01*
G75*
G02*
X145670000Y-129650000I0J-50000D01*
G01*
X145670000Y-131650000D01*
G75*
G02*
X145620000Y-131700000I-50000J0D01*
G01*
G37*
G36*
G01*
X145620000Y-138900000D02*
X142120000Y-138900000D01*
G75*
G02*
X142070000Y-138850000I0J50000D01*
G01*
X142070000Y-136850000D01*
G75*
G02*
X142120000Y-136800000I50000J0D01*
G01*
X145620000Y-136800000D01*
G75*
G02*
X145670000Y-136850000I0J-50000D01*
G01*
X145670000Y-138850000D01*
G75*
G02*
X145620000Y-138900000I-50000J0D01*
G01*
G37*
G36*
G01*
X145620000Y-142200000D02*
X142120000Y-142200000D01*
G75*
G02*
X142070000Y-142150000I0J50000D01*
G01*
X142070000Y-140150000D01*
G75*
G02*
X142120000Y-140100000I50000J0D01*
G01*
X145620000Y-140100000D01*
G75*
G02*
X145670000Y-140150000I0J-50000D01*
G01*
X145670000Y-142150000D01*
G75*
G02*
X145620000Y-142200000I-50000J0D01*
G01*
G37*
G36*
G01*
X126530000Y-142180000D02*
X123030000Y-142180000D01*
G75*
G02*
X122980000Y-142130000I0J50000D01*
G01*
X122980000Y-140130000D01*
G75*
G02*
X123030000Y-140080000I50000J0D01*
G01*
X126530000Y-140080000D01*
G75*
G02*
X126580000Y-140130000I0J-50000D01*
G01*
X126580000Y-142130000D01*
G75*
G02*
X126530000Y-142180000I-50000J0D01*
G01*
G37*
G36*
G01*
X126530000Y-137680000D02*
X123030000Y-137680000D01*
G75*
G02*
X122980000Y-137630000I0J50000D01*
G01*
X122980000Y-135630000D01*
G75*
G02*
X123030000Y-135580000I50000J0D01*
G01*
X126530000Y-135580000D01*
G75*
G02*
X126580000Y-135630000I0J-50000D01*
G01*
X126580000Y-137630000D01*
G75*
G02*
X126530000Y-137680000I-50000J0D01*
G01*
G37*
G36*
G01*
X126530000Y-131680000D02*
X123030000Y-131680000D01*
G75*
G02*
X122980000Y-131630000I0J50000D01*
G01*
X122980000Y-129630000D01*
G75*
G02*
X123030000Y-129580000I50000J0D01*
G01*
X126530000Y-129580000D01*
G75*
G02*
X126580000Y-129630000I0J-50000D01*
G01*
X126580000Y-131630000D01*
G75*
G02*
X126530000Y-131680000I-50000J0D01*
G01*
G37*
%TD*%
%TO.C,U1*%
G36*
G01*
X145620000Y-109500000D02*
X142120000Y-109500000D01*
G75*
G02*
X142070000Y-109450000I0J50000D01*
G01*
X142070000Y-107450000D01*
G75*
G02*
X142120000Y-107400000I50000J0D01*
G01*
X145620000Y-107400000D01*
G75*
G02*
X145670000Y-107450000I0J-50000D01*
G01*
X145670000Y-109450000D01*
G75*
G02*
X145620000Y-109500000I-50000J0D01*
G01*
G37*
G36*
G01*
X145620000Y-116700000D02*
X142120000Y-116700000D01*
G75*
G02*
X142070000Y-116650000I0J50000D01*
G01*
X142070000Y-114650000D01*
G75*
G02*
X142120000Y-114600000I50000J0D01*
G01*
X145620000Y-114600000D01*
G75*
G02*
X145670000Y-114650000I0J-50000D01*
G01*
X145670000Y-116650000D01*
G75*
G02*
X145620000Y-116700000I-50000J0D01*
G01*
G37*
G36*
G01*
X145620000Y-120000000D02*
X142120000Y-120000000D01*
G75*
G02*
X142070000Y-119950000I0J50000D01*
G01*
X142070000Y-117950000D01*
G75*
G02*
X142120000Y-117900000I50000J0D01*
G01*
X145620000Y-117900000D01*
G75*
G02*
X145670000Y-117950000I0J-50000D01*
G01*
X145670000Y-119950000D01*
G75*
G02*
X145620000Y-120000000I-50000J0D01*
G01*
G37*
G36*
G01*
X126530000Y-119980000D02*
X123030000Y-119980000D01*
G75*
G02*
X122980000Y-119930000I0J50000D01*
G01*
X122980000Y-117930000D01*
G75*
G02*
X123030000Y-117880000I50000J0D01*
G01*
X126530000Y-117880000D01*
G75*
G02*
X126580000Y-117930000I0J-50000D01*
G01*
X126580000Y-119930000D01*
G75*
G02*
X126530000Y-119980000I-50000J0D01*
G01*
G37*
G36*
G01*
X126530000Y-115480000D02*
X123030000Y-115480000D01*
G75*
G02*
X122980000Y-115430000I0J50000D01*
G01*
X122980000Y-113430000D01*
G75*
G02*
X123030000Y-113380000I50000J0D01*
G01*
X126530000Y-113380000D01*
G75*
G02*
X126580000Y-113430000I0J-50000D01*
G01*
X126580000Y-115430000D01*
G75*
G02*
X126530000Y-115480000I-50000J0D01*
G01*
G37*
G36*
G01*
X126530000Y-109480000D02*
X123030000Y-109480000D01*
G75*
G02*
X122980000Y-109430000I0J50000D01*
G01*
X122980000Y-107430000D01*
G75*
G02*
X123030000Y-107380000I50000J0D01*
G01*
X126530000Y-107380000D01*
G75*
G02*
X126580000Y-107430000I0J-50000D01*
G01*
X126580000Y-109430000D01*
G75*
G02*
X126530000Y-109480000I-50000J0D01*
G01*
G37*
%TD*%
%TO.C,R7*%
G36*
G01*
X148800000Y-138925000D02*
X148200000Y-138925000D01*
G75*
G02*
X147975000Y-138700000I0J225000D01*
G01*
X147975000Y-138250000D01*
G75*
G02*
X148200000Y-138025000I225000J0D01*
G01*
X148800000Y-138025000D01*
G75*
G02*
X149025000Y-138250000I0J-225000D01*
G01*
X149025000Y-138700000D01*
G75*
G02*
X148800000Y-138925000I-225000J0D01*
G01*
G37*
G36*
G01*
X148800000Y-140575000D02*
X148200000Y-140575000D01*
G75*
G02*
X147975000Y-140350000I0J225000D01*
G01*
X147975000Y-139900000D01*
G75*
G02*
X148200000Y-139675000I225000J0D01*
G01*
X148800000Y-139675000D01*
G75*
G02*
X149025000Y-139900000I0J-225000D01*
G01*
X149025000Y-140350000D01*
G75*
G02*
X148800000Y-140575000I-225000J0D01*
G01*
G37*
%TD*%
%TO.C,R5*%
G36*
G01*
X149350000Y-116825000D02*
X148750000Y-116825000D01*
G75*
G02*
X148525000Y-116600000I0J225000D01*
G01*
X148525000Y-116150000D01*
G75*
G02*
X148750000Y-115925000I225000J0D01*
G01*
X149350000Y-115925000D01*
G75*
G02*
X149575000Y-116150000I0J-225000D01*
G01*
X149575000Y-116600000D01*
G75*
G02*
X149350000Y-116825000I-225000J0D01*
G01*
G37*
G36*
G01*
X149350000Y-118475000D02*
X148750000Y-118475000D01*
G75*
G02*
X148525000Y-118250000I0J225000D01*
G01*
X148525000Y-117800000D01*
G75*
G02*
X148750000Y-117575000I225000J0D01*
G01*
X149350000Y-117575000D01*
G75*
G02*
X149575000Y-117800000I0J-225000D01*
G01*
X149575000Y-118250000D01*
G75*
G02*
X149350000Y-118475000I-225000J0D01*
G01*
G37*
%TD*%
%TO.C,C3*%
G36*
G01*
X152586110Y-139375000D02*
X154713890Y-139375000D01*
G75*
G02*
X154975000Y-139636110I0J-261110D01*
G01*
X154975000Y-141463890D01*
G75*
G02*
X154713890Y-141725000I-261110J0D01*
G01*
X152586110Y-141725000D01*
G75*
G02*
X152325000Y-141463890I0J261110D01*
G01*
X152325000Y-139636110D01*
G75*
G02*
X152586110Y-139375000I261110J0D01*
G01*
G37*
G36*
G01*
X152586110Y-132975000D02*
X154713890Y-132975000D01*
G75*
G02*
X154975000Y-133236110I0J-261110D01*
G01*
X154975000Y-135063890D01*
G75*
G02*
X154713890Y-135325000I-261110J0D01*
G01*
X152586110Y-135325000D01*
G75*
G02*
X152325000Y-135063890I0J261110D01*
G01*
X152325000Y-133236110D01*
G75*
G02*
X152586110Y-132975000I261110J0D01*
G01*
G37*
%TD*%
%TO.C,C1*%
G36*
G01*
X154963890Y-114775000D02*
X152836110Y-114775000D01*
G75*
G02*
X152575000Y-114513890I0J261110D01*
G01*
X152575000Y-112686110D01*
G75*
G02*
X152836110Y-112425000I261110J0D01*
G01*
X154963890Y-112425000D01*
G75*
G02*
X155225000Y-112686110I0J-261110D01*
G01*
X155225000Y-114513890D01*
G75*
G02*
X154963890Y-114775000I-261110J0D01*
G01*
G37*
G36*
G01*
X154963890Y-121175000D02*
X152836110Y-121175000D01*
G75*
G02*
X152575000Y-120913890I0J261110D01*
G01*
X152575000Y-119086110D01*
G75*
G02*
X152836110Y-118825000I261110J0D01*
G01*
X154963890Y-118825000D01*
G75*
G02*
X155225000Y-119086110I0J-261110D01*
G01*
X155225000Y-120913890D01*
G75*
G02*
X154963890Y-121175000I-261110J0D01*
G01*
G37*
%TD*%
D13*
%TO.C,J2*%
X117010000Y-153740000D03*
X119550000Y-153740000D03*
X122090000Y-153740000D03*
G36*
G01*
X123780000Y-152840000D02*
X125480000Y-152840000D01*
G75*
G02*
X125530000Y-152890000I0J-50000D01*
G01*
X125530000Y-154590000D01*
G75*
G02*
X125480000Y-154640000I-50000J0D01*
G01*
X123780000Y-154640000D01*
G75*
G02*
X123730000Y-154590000I0J50000D01*
G01*
X123730000Y-152890000D01*
G75*
G02*
X123780000Y-152840000I50000J0D01*
G01*
G37*
%TD*%
D14*
%TO.C,J1*%
X113070000Y-80330000D03*
X113070000Y-82870000D03*
X113070000Y-85410000D03*
X113070000Y-87950000D03*
X113070000Y-90490000D03*
X113070000Y-93030000D03*
X113070000Y-95570000D03*
X113070000Y-98110000D03*
X113070000Y-100650000D03*
X113070000Y-103190000D03*
X113070000Y-105730000D03*
X113070000Y-108270000D03*
X113070000Y-110810000D03*
X113070000Y-113350000D03*
X113070000Y-115890000D03*
X113070000Y-118430000D03*
X113070000Y-120970000D03*
X113070000Y-123510000D03*
X113070000Y-126050000D03*
X113070000Y-128590000D03*
X113070000Y-131130000D03*
X113070000Y-133670000D03*
X113070000Y-136210000D03*
X113070000Y-138750000D03*
X113070000Y-141290000D03*
X113070000Y-143830000D03*
X113070000Y-146370000D03*
X113070000Y-148910000D03*
X113070000Y-151450000D03*
X113070000Y-153990000D03*
X113070000Y-156530000D03*
X113070000Y-159070000D03*
D15*
X107800000Y-159070000D03*
X107800000Y-156530000D03*
X107800000Y-153990000D03*
X107800000Y-151450000D03*
X107800000Y-148910000D03*
X107800000Y-146370000D03*
X107800000Y-143830000D03*
X107800000Y-141290000D03*
X107800000Y-138750000D03*
X107800000Y-136210000D03*
X107800000Y-133670000D03*
X107800000Y-131130000D03*
X107800000Y-128590000D03*
X107800000Y-126050000D03*
X107800000Y-123510000D03*
X107800000Y-120970000D03*
X107800000Y-118430000D03*
X107800000Y-115890000D03*
X107800000Y-113350000D03*
X107800000Y-110810000D03*
X107800000Y-108270000D03*
X107800000Y-105730000D03*
X107800000Y-103190000D03*
X107800000Y-100650000D03*
X107800000Y-98110000D03*
X107800000Y-95570000D03*
X107800000Y-93030000D03*
X107800000Y-90490000D03*
X107800000Y-87950000D03*
X107800000Y-85410000D03*
X107800000Y-82870000D03*
X109450000Y-159070000D03*
X109450000Y-156530000D03*
X109450000Y-153990000D03*
X109450000Y-151450000D03*
X109450000Y-148910000D03*
X109450000Y-146370000D03*
X109450000Y-143830000D03*
X109450000Y-141290000D03*
X109450000Y-138750000D03*
X109450000Y-136210000D03*
X109450000Y-133670000D03*
X109450000Y-131130000D03*
X109450000Y-128590000D03*
X109450000Y-126050000D03*
X109450000Y-123510000D03*
X109450000Y-120970000D03*
X109450000Y-118430000D03*
X109450000Y-115890000D03*
X109450000Y-113350000D03*
X109450000Y-110810000D03*
X109450000Y-108270000D03*
X109450000Y-105730000D03*
X109450000Y-103190000D03*
X109450000Y-100650000D03*
X109450000Y-98110000D03*
X109450000Y-95570000D03*
X109450000Y-93030000D03*
X109450000Y-90490000D03*
X109450000Y-87950000D03*
X109450000Y-85410000D03*
X109450000Y-82870000D03*
D16*
X100600000Y-151220000D03*
X100600000Y-88180000D03*
D15*
X107800000Y-80330000D03*
X109450000Y-80330000D03*
%TD*%
D17*
%TO.C,J7*%
X168000000Y-92400000D03*
X168000000Y-88200000D03*
X168000000Y-84000000D03*
X168000000Y-79800000D03*
X172200000Y-92400000D03*
X172200000Y-88200000D03*
G36*
G01*
X170560400Y-78400000D02*
X173839600Y-78400000D01*
G75*
G02*
X174100000Y-78660400I0J-260400D01*
G01*
X174100000Y-80939600D01*
G75*
G02*
X173839600Y-81200000I-260400J0D01*
G01*
X170560400Y-81200000D01*
G75*
G02*
X170300000Y-80939600I0J260400D01*
G01*
X170300000Y-78660400D01*
G75*
G02*
X170560400Y-78400000I260400J0D01*
G01*
G37*
X172200000Y-84000000D03*
%TD*%
D18*
%TO.C,J6*%
X155400000Y-98700000D03*
X151200000Y-98700000D03*
X147000000Y-98700000D03*
X142800000Y-98700000D03*
X155400000Y-94500000D03*
X151200000Y-94500000D03*
G36*
G01*
X141400000Y-96139600D02*
X141400000Y-92860400D01*
G75*
G02*
X141660400Y-92600000I260400J0D01*
G01*
X143939600Y-92600000D01*
G75*
G02*
X144200000Y-92860400I0J-260400D01*
G01*
X144200000Y-96139600D01*
G75*
G02*
X143939600Y-96400000I-260400J0D01*
G01*
X141660400Y-96400000D01*
G75*
G02*
X141400000Y-96139600I0J260400D01*
G01*
G37*
X147000000Y-94500000D03*
%TD*%
%TO.C,J5*%
X142800000Y-79800000D03*
X147000000Y-79800000D03*
X151200000Y-79800000D03*
X155400000Y-79800000D03*
X142800000Y-84000000D03*
X147000000Y-84000000D03*
G36*
G01*
X156800000Y-82360400D02*
X156800000Y-85639600D01*
G75*
G02*
X156539600Y-85900000I-260400J0D01*
G01*
X154260400Y-85900000D01*
G75*
G02*
X154000000Y-85639600I0J260400D01*
G01*
X154000000Y-82360400D01*
G75*
G02*
X154260400Y-82100000I260400J0D01*
G01*
X156539600Y-82100000D01*
G75*
G02*
X156800000Y-82360400I0J-260400D01*
G01*
G37*
X151200000Y-84000000D03*
%TD*%
%TO.C,J4*%
X132300000Y-98700000D03*
X128100000Y-98700000D03*
X123900000Y-98700000D03*
X119700000Y-98700000D03*
X132300000Y-94500000D03*
X128100000Y-94500000D03*
G36*
G01*
X118300000Y-96139600D02*
X118300000Y-92860400D01*
G75*
G02*
X118560400Y-92600000I260400J0D01*
G01*
X120839600Y-92600000D01*
G75*
G02*
X121100000Y-92860400I0J-260400D01*
G01*
X121100000Y-96139600D01*
G75*
G02*
X120839600Y-96400000I-260400J0D01*
G01*
X118560400Y-96400000D01*
G75*
G02*
X118300000Y-96139600I0J260400D01*
G01*
G37*
X123900000Y-94500000D03*
%TD*%
%TO.C,J3*%
X119700000Y-79800000D03*
X123900000Y-79800000D03*
X128100000Y-79800000D03*
X132300000Y-79800000D03*
X119700000Y-84000000D03*
X123900000Y-84000000D03*
G36*
G01*
X133700000Y-82360400D02*
X133700000Y-85639600D01*
G75*
G02*
X133439600Y-85900000I-260400J0D01*
G01*
X131160400Y-85900000D01*
G75*
G02*
X130900000Y-85639600I0J260400D01*
G01*
X130900000Y-82360400D01*
G75*
G02*
X131160400Y-82100000I260400J0D01*
G01*
X133439600Y-82100000D01*
G75*
G02*
X133700000Y-82360400I0J-260400D01*
G01*
G37*
X128100000Y-84000000D03*
%TD*%
D17*
%TO.C,J9*%
X168000000Y-159600000D03*
X168000000Y-155400000D03*
X168000000Y-151200000D03*
X168000000Y-147000000D03*
X168000000Y-142800000D03*
X168000000Y-138600000D03*
X168000000Y-134400000D03*
X168000000Y-130200000D03*
X168000000Y-126000000D03*
X168000000Y-121800000D03*
X168000000Y-117600000D03*
X168000000Y-113400000D03*
X172200000Y-159600000D03*
X172200000Y-155400000D03*
X172200000Y-151200000D03*
X172200000Y-147000000D03*
X172200000Y-142800000D03*
X172200000Y-138600000D03*
X172200000Y-134400000D03*
X172200000Y-130200000D03*
X172200000Y-126000000D03*
X172200000Y-121800000D03*
G36*
G01*
X170560400Y-112000000D02*
X173839600Y-112000000D01*
G75*
G02*
X174100000Y-112260400I0J-260400D01*
G01*
X174100000Y-114539600D01*
G75*
G02*
X173839600Y-114800000I-260400J0D01*
G01*
X170560400Y-114800000D01*
G75*
G02*
X170300000Y-114539600I0J260400D01*
G01*
X170300000Y-112260400D01*
G75*
G02*
X170560400Y-112000000I260400J0D01*
G01*
G37*
X172200000Y-117600000D03*
%TD*%
%TO.C,J8*%
G36*
G01*
X170560400Y-99400000D02*
X173839600Y-99400000D01*
G75*
G02*
X174100000Y-99660400I0J-260400D01*
G01*
X174100000Y-101939600D01*
G75*
G02*
X173839600Y-102200000I-260400J0D01*
G01*
X170560400Y-102200000D01*
G75*
G02*
X170300000Y-101939600I0J260400D01*
G01*
X170300000Y-99660400D01*
G75*
G02*
X170560400Y-99400000I260400J0D01*
G01*
G37*
X172200000Y-105000000D03*
X168000000Y-100800000D03*
X168000000Y-105000000D03*
%TD*%
D19*
%TO.C,R4*%
X161460000Y-157550000D03*
D20*
X161460000Y-149930000D03*
%TD*%
D19*
%TO.C,U4*%
X146220000Y-151200000D03*
X138600000Y-158820000D03*
X146220000Y-153740000D03*
X138600000Y-156280000D03*
X146220000Y-156280000D03*
X138600000Y-153740000D03*
X146220000Y-158820000D03*
G36*
G01*
X137750000Y-152000000D02*
X137750000Y-150400000D01*
G75*
G02*
X137800000Y-150350000I50000J0D01*
G01*
X139400000Y-150350000D01*
G75*
G02*
X139450000Y-150400000I0J-50000D01*
G01*
X139450000Y-152000000D01*
G75*
G02*
X139400000Y-152050000I-50000J0D01*
G01*
X137800000Y-152050000D01*
G75*
G02*
X137750000Y-152000000I0J50000D01*
G01*
G37*
%TD*%
%TO.C,R3*%
X136060000Y-154375000D03*
D20*
X128440000Y-154375000D03*
%TD*%
D19*
%TO.C,R2*%
X128440000Y-151200000D03*
D20*
X136060000Y-151200000D03*
%TD*%
D19*
%TO.C,R1*%
X117010000Y-148910000D03*
D20*
X124630000Y-148910000D03*
%TD*%
D21*
%TO.C,D2*%
X157650000Y-154375000D03*
G36*
G01*
X148880000Y-155475000D02*
X148880000Y-153275000D01*
G75*
G02*
X148930000Y-153225000I50000J0D01*
G01*
X151130000Y-153225000D01*
G75*
G02*
X151180000Y-153275000I0J-50000D01*
G01*
X151180000Y-155475000D01*
G75*
G02*
X151130000Y-155525000I-50000J0D01*
G01*
X148930000Y-155525000D01*
G75*
G02*
X148880000Y-155475000I0J50000D01*
G01*
G37*
%TD*%
%TO.C,D1*%
X157650000Y-151200000D03*
G36*
G01*
X148880000Y-152300000D02*
X148880000Y-150100000D01*
G75*
G02*
X148930000Y-150050000I50000J0D01*
G01*
X151130000Y-150050000D01*
G75*
G02*
X151180000Y-150100000I0J-50000D01*
G01*
X151180000Y-152300000D01*
G75*
G02*
X151130000Y-152350000I-50000J0D01*
G01*
X148930000Y-152350000D01*
G75*
G02*
X148880000Y-152300000I0J50000D01*
G01*
G37*
%TD*%
D20*
%TO.C,C5*%
X152530000Y-157550000D03*
X150030000Y-157550000D03*
%TD*%
%TO.C,C4*%
X135425000Y-157550000D03*
X132925000Y-157550000D03*
%TD*%
M02*
