%TF.GenerationSoftware,KiCad,Pcbnew,(5.1.9)-1*%
%TF.CreationDate,2021-05-18T23:24:29+08:00*%
%TF.ProjectId,KCORES CSPS to ATX Converter,4b434f52-4553-4204-9353-505320746f20,1.0*%
%TF.SameCoordinates,Original*%
%TF.FileFunction,Legend,Bot*%
%TF.FilePolarity,Positive*%
%FSLAX46Y46*%
G04 Gerber Fmt 4.6, Leading zero omitted, Abs format (unit mm)*
G04 Created by KiCad (PCBNEW (5.1.9)-1) date 2021-05-18 23:24:29*
%MOMM*%
%LPD*%
G01*
G04 APERTURE LIST*
%ADD10C,0.120000*%
%ADD11C,0.150000*%
G04 APERTURE END LIST*
D10*
%TO.C,U2*%
X145606000Y-112380000D02*
X122746000Y-112380000D01*
X147000000Y-113650000D02*
X145606000Y-112380000D01*
X147000000Y-125890000D02*
X147000000Y-113650000D01*
X122746000Y-125890000D02*
X147000000Y-125890000D01*
X122746000Y-112380000D02*
X122746000Y-125890000D01*
%TO.C,R6*%
X119527500Y-122887258D02*
X119527500Y-122412742D01*
X120572500Y-122887258D02*
X120572500Y-122412742D01*
%TO.C,C2*%
X153440000Y-125835000D02*
X153440000Y-117600000D01*
X157960000Y-125835000D02*
X153440000Y-125835000D01*
X157960000Y-117600000D02*
X157960000Y-125835000D01*
%TO.C,JP2*%
X119420000Y-159155000D02*
X119420000Y-159755000D01*
X121520000Y-158455000D02*
X120120000Y-158455000D01*
X122220000Y-159755000D02*
X122220000Y-159155000D01*
X120120000Y-160455000D02*
X121520000Y-160455000D01*
X119420000Y-159755000D02*
G75*
G03*
X120120000Y-160455000I700000J0D01*
G01*
X120120000Y-158455000D02*
G75*
G03*
X119420000Y-159155000I0J-700000D01*
G01*
X122220000Y-159155000D02*
G75*
G03*
X121520000Y-158455000I-700000J0D01*
G01*
X121520000Y-160455000D02*
G75*
G03*
X122220000Y-159755000I0J700000D01*
G01*
%TO.C,JP1*%
X119420000Y-156615000D02*
X119420000Y-157215000D01*
X121520000Y-155915000D02*
X120120000Y-155915000D01*
X122220000Y-157215000D02*
X122220000Y-156615000D01*
X120120000Y-157915000D02*
X121520000Y-157915000D01*
X119420000Y-157215000D02*
G75*
G03*
X120120000Y-157915000I700000J0D01*
G01*
X120120000Y-155915000D02*
G75*
G03*
X119420000Y-156615000I0J-700000D01*
G01*
X122220000Y-156615000D02*
G75*
G03*
X121520000Y-155915000I-700000J0D01*
G01*
X121520000Y-157915000D02*
G75*
G03*
X122220000Y-157215000I0J700000D01*
G01*
%TO.C,U2*%
D11*
X134136380Y-117968095D02*
X134945904Y-117968095D01*
X135041142Y-118015714D01*
X135088761Y-118063333D01*
X135136380Y-118158571D01*
X135136380Y-118349047D01*
X135088761Y-118444285D01*
X135041142Y-118491904D01*
X134945904Y-118539523D01*
X134136380Y-118539523D01*
X134231619Y-118968095D02*
X134184000Y-119015714D01*
X134136380Y-119110952D01*
X134136380Y-119349047D01*
X134184000Y-119444285D01*
X134231619Y-119491904D01*
X134326857Y-119539523D01*
X134422095Y-119539523D01*
X134564952Y-119491904D01*
X135136380Y-118920476D01*
X135136380Y-119539523D01*
%TO.C,R6*%
X121932380Y-122483333D02*
X121456190Y-122150000D01*
X121932380Y-121911904D02*
X120932380Y-121911904D01*
X120932380Y-122292857D01*
X120980000Y-122388095D01*
X121027619Y-122435714D01*
X121122857Y-122483333D01*
X121265714Y-122483333D01*
X121360952Y-122435714D01*
X121408571Y-122388095D01*
X121456190Y-122292857D01*
X121456190Y-121911904D01*
X120932380Y-123340476D02*
X120932380Y-123150000D01*
X120980000Y-123054761D01*
X121027619Y-123007142D01*
X121170476Y-122911904D01*
X121360952Y-122864285D01*
X121741904Y-122864285D01*
X121837142Y-122911904D01*
X121884761Y-122959523D01*
X121932380Y-123054761D01*
X121932380Y-123245238D01*
X121884761Y-123340476D01*
X121837142Y-123388095D01*
X121741904Y-123435714D01*
X121503809Y-123435714D01*
X121408571Y-123388095D01*
X121360952Y-123340476D01*
X121313333Y-123245238D01*
X121313333Y-123054761D01*
X121360952Y-122959523D01*
X121408571Y-122911904D01*
X121503809Y-122864285D01*
%TO.C,C2*%
X159157142Y-121083333D02*
X159204761Y-121035714D01*
X159252380Y-120892857D01*
X159252380Y-120797619D01*
X159204761Y-120654761D01*
X159109523Y-120559523D01*
X159014285Y-120511904D01*
X158823809Y-120464285D01*
X158680952Y-120464285D01*
X158490476Y-120511904D01*
X158395238Y-120559523D01*
X158300000Y-120654761D01*
X158252380Y-120797619D01*
X158252380Y-120892857D01*
X158300000Y-121035714D01*
X158347619Y-121083333D01*
X158347619Y-121464285D02*
X158300000Y-121511904D01*
X158252380Y-121607142D01*
X158252380Y-121845238D01*
X158300000Y-121940476D01*
X158347619Y-121988095D01*
X158442857Y-122035714D01*
X158538095Y-122035714D01*
X158680952Y-121988095D01*
X159252380Y-121416666D01*
X159252380Y-122035714D01*
%TO.C,JP2*%
X121653333Y-160812380D02*
X121653333Y-161526666D01*
X121700952Y-161669523D01*
X121796190Y-161764761D01*
X121939047Y-161812380D01*
X122034285Y-161812380D01*
X121177142Y-161812380D02*
X121177142Y-160812380D01*
X120796190Y-160812380D01*
X120700952Y-160860000D01*
X120653333Y-160907619D01*
X120605714Y-161002857D01*
X120605714Y-161145714D01*
X120653333Y-161240952D01*
X120700952Y-161288571D01*
X120796190Y-161336190D01*
X121177142Y-161336190D01*
X120224761Y-160907619D02*
X120177142Y-160860000D01*
X120081904Y-160812380D01*
X119843809Y-160812380D01*
X119748571Y-160860000D01*
X119700952Y-160907619D01*
X119653333Y-161002857D01*
X119653333Y-161098095D01*
X119700952Y-161240952D01*
X120272380Y-161812380D01*
X119653333Y-161812380D01*
%TO.C,JP1*%
X121653333Y-154462380D02*
X121653333Y-155176666D01*
X121700952Y-155319523D01*
X121796190Y-155414761D01*
X121939047Y-155462380D01*
X122034285Y-155462380D01*
X121177142Y-155462380D02*
X121177142Y-154462380D01*
X120796190Y-154462380D01*
X120700952Y-154510000D01*
X120653333Y-154557619D01*
X120605714Y-154652857D01*
X120605714Y-154795714D01*
X120653333Y-154890952D01*
X120700952Y-154938571D01*
X120796190Y-154986190D01*
X121177142Y-154986190D01*
X119653333Y-155462380D02*
X120224761Y-155462380D01*
X119939047Y-155462380D02*
X119939047Y-154462380D01*
X120034285Y-154605238D01*
X120129523Y-154700476D01*
X120224761Y-154748095D01*
%TD*%
M02*
