%TF.GenerationSoftware,KiCad,Pcbnew,(5.1.9)-1*%
%TF.CreationDate,2021-05-19T11:39:12+08:00*%
%TF.ProjectId,KCORES CSPS to ATX Converter,4b434f52-4553-4204-9353-505320746f20,1.0*%
%TF.SameCoordinates,Original*%
%TF.FileFunction,Legend,Top*%
%TF.FilePolarity,Positive*%
%FSLAX46Y46*%
G04 Gerber Fmt 4.6, Leading zero omitted, Abs format (unit mm)*
G04 Created by KiCad (PCBNEW (5.1.9)-1) date 2021-05-19 11:39:12*
%MOMM*%
%LPD*%
G01*
G04 APERTURE LIST*
%ADD10C,0.150000*%
%ADD11C,0.200000*%
%ADD12C,0.127000*%
%ADD13C,0.120000*%
%ADD14C,0.015000*%
G04 APERTURE END LIST*
D10*
X123582380Y-155365000D02*
X124630000Y-155365000D01*
X124010952Y-155732380D02*
X124201428Y-155732380D01*
X124296666Y-155780000D01*
X124391904Y-155875238D01*
X124439523Y-156065714D01*
X124439523Y-156399047D01*
X124391904Y-156589523D01*
X124296666Y-156684761D01*
X124201428Y-156732380D01*
X124010952Y-156732380D01*
X123915714Y-156684761D01*
X123820476Y-156589523D01*
X123772857Y-156399047D01*
X123772857Y-156065714D01*
X123820476Y-155875238D01*
X123915714Y-155780000D01*
X124010952Y-155732380D01*
X124630000Y-155365000D02*
X125677619Y-155365000D01*
X124868095Y-156732380D02*
X124868095Y-155732380D01*
X125439523Y-156732380D01*
X125439523Y-155732380D01*
X121709047Y-156351428D02*
X122470952Y-156351428D01*
X119859523Y-156637142D02*
X119811904Y-156684761D01*
X119669047Y-156732380D01*
X119573809Y-156732380D01*
X119430952Y-156684761D01*
X119335714Y-156589523D01*
X119288095Y-156494285D01*
X119240476Y-156303809D01*
X119240476Y-156160952D01*
X119288095Y-155970476D01*
X119335714Y-155875238D01*
X119430952Y-155780000D01*
X119573809Y-155732380D01*
X119669047Y-155732380D01*
X119811904Y-155780000D01*
X119859523Y-155827619D01*
X175947619Y-161412023D02*
X175900000Y-161364404D01*
X175852380Y-161269166D01*
X175852380Y-161031071D01*
X175900000Y-160935833D01*
X175947619Y-160888214D01*
X176042857Y-160840595D01*
X176138095Y-160840595D01*
X176280952Y-160888214D01*
X176852380Y-161459642D01*
X176852380Y-160840595D01*
X175852380Y-160221547D02*
X175852380Y-160126309D01*
X175900000Y-160031071D01*
X175947619Y-159983452D01*
X176042857Y-159935833D01*
X176233333Y-159888214D01*
X176471428Y-159888214D01*
X176661904Y-159935833D01*
X176757142Y-159983452D01*
X176804761Y-160031071D01*
X176852380Y-160126309D01*
X176852380Y-160221547D01*
X176804761Y-160316785D01*
X176757142Y-160364404D01*
X176661904Y-160412023D01*
X176471428Y-160459642D01*
X176233333Y-160459642D01*
X176042857Y-160412023D01*
X175947619Y-160364404D01*
X175900000Y-160316785D01*
X175852380Y-160221547D01*
X175947619Y-159507261D02*
X175900000Y-159459642D01*
X175852380Y-159364404D01*
X175852380Y-159126309D01*
X175900000Y-159031071D01*
X175947619Y-158983452D01*
X176042857Y-158935833D01*
X176138095Y-158935833D01*
X176280952Y-158983452D01*
X176852380Y-159554880D01*
X176852380Y-158935833D01*
X176852380Y-157983452D02*
X176852380Y-158554880D01*
X176852380Y-158269166D02*
X175852380Y-158269166D01*
X175995238Y-158364404D01*
X176090476Y-158459642D01*
X176138095Y-158554880D01*
X175852380Y-157364404D02*
X175852380Y-157269166D01*
X175900000Y-157173928D01*
X175947619Y-157126309D01*
X176042857Y-157078690D01*
X176233333Y-157031071D01*
X176471428Y-157031071D01*
X176661904Y-157078690D01*
X176757142Y-157126309D01*
X176804761Y-157173928D01*
X176852380Y-157269166D01*
X176852380Y-157364404D01*
X176804761Y-157459642D01*
X176757142Y-157507261D01*
X176661904Y-157554880D01*
X176471428Y-157602500D01*
X176233333Y-157602500D01*
X176042857Y-157554880D01*
X175947619Y-157507261D01*
X175900000Y-157459642D01*
X175852380Y-157364404D01*
X175852380Y-156697738D02*
X175852380Y-156078690D01*
X176233333Y-156412023D01*
X176233333Y-156269166D01*
X176280952Y-156173928D01*
X176328571Y-156126309D01*
X176423809Y-156078690D01*
X176661904Y-156078690D01*
X176757142Y-156126309D01*
X176804761Y-156173928D01*
X176852380Y-156269166D01*
X176852380Y-156554880D01*
X176804761Y-156650119D01*
X176757142Y-156697738D01*
X176852380Y-155126309D02*
X176852380Y-155697738D01*
X176852380Y-155412023D02*
X175852380Y-155412023D01*
X175995238Y-155507261D01*
X176090476Y-155602500D01*
X176138095Y-155697738D01*
X175852380Y-154792976D02*
X175852380Y-154126309D01*
X176852380Y-154554880D01*
X176185714Y-153078690D02*
X176852380Y-152840595D01*
X176185714Y-152602500D01*
X176852380Y-151697738D02*
X176852380Y-152269166D01*
X176852380Y-151983452D02*
X175852380Y-151983452D01*
X175995238Y-152078690D01*
X176090476Y-152173928D01*
X176138095Y-152269166D01*
X176757142Y-151269166D02*
X176804761Y-151221547D01*
X176852380Y-151269166D01*
X176804761Y-151316785D01*
X176757142Y-151269166D01*
X176852380Y-151269166D01*
X175852380Y-150602500D02*
X175852380Y-150507261D01*
X175900000Y-150412023D01*
X175947619Y-150364404D01*
X176042857Y-150316785D01*
X176233333Y-150269166D01*
X176471428Y-150269166D01*
X176661904Y-150316785D01*
X176757142Y-150364404D01*
X176804761Y-150412023D01*
X176852380Y-150507261D01*
X176852380Y-150602500D01*
X176804761Y-150697738D01*
X176757142Y-150745357D01*
X176661904Y-150792976D01*
X176471428Y-150840595D01*
X176233333Y-150840595D01*
X176042857Y-150792976D01*
X175947619Y-150745357D01*
X175900000Y-150697738D01*
X175852380Y-150602500D01*
X116748095Y-156732380D02*
X116748095Y-155732380D01*
X116986190Y-155732380D01*
X117129047Y-155780000D01*
X117224285Y-155875238D01*
X117271904Y-155970476D01*
X117319523Y-156160952D01*
X117319523Y-156303809D01*
X117271904Y-156494285D01*
X117224285Y-156589523D01*
X117129047Y-156684761D01*
X116986190Y-156732380D01*
X116748095Y-156732380D01*
D11*
%TO.C,U4*%
X128410000Y-151645000D02*
G75*
G03*
X128410000Y-151645000I-100000J0D01*
G01*
D12*
X130402500Y-151425000D02*
X134297500Y-151425000D01*
X130402500Y-156475000D02*
X134297500Y-156475000D01*
D13*
%TO.C,R4*%
X139412742Y-148977500D02*
X139887258Y-148977500D01*
X139412742Y-150022500D02*
X139887258Y-150022500D01*
%TO.C,R3*%
X129562742Y-144827500D02*
X130037258Y-144827500D01*
X129562742Y-145872500D02*
X130037258Y-145872500D01*
%TO.C,R2*%
X134562742Y-144827500D02*
X135037258Y-144827500D01*
X134562742Y-145872500D02*
X135037258Y-145872500D01*
%TO.C,R1*%
X129612742Y-149027500D02*
X130087258Y-149027500D01*
X129612742Y-150072500D02*
X130087258Y-150072500D01*
%TO.C,C5*%
X134990580Y-150010000D02*
X134709420Y-150010000D01*
X134990580Y-148990000D02*
X134709420Y-148990000D01*
%TO.C,C4*%
X130790580Y-159110000D02*
X130509420Y-159110000D01*
X130790580Y-158090000D02*
X130509420Y-158090000D01*
%TO.C,U3*%
X146004000Y-129230000D02*
X146004000Y-142740000D01*
X146004000Y-142740000D02*
X121750000Y-142740000D01*
X121750000Y-142740000D02*
X121750000Y-130500000D01*
X121750000Y-130500000D02*
X123144000Y-129230000D01*
X123144000Y-129230000D02*
X146004000Y-129230000D01*
%TO.C,U1*%
X146004000Y-107030000D02*
X146004000Y-120540000D01*
X146004000Y-120540000D02*
X121750000Y-120540000D01*
X121750000Y-120540000D02*
X121750000Y-108300000D01*
X121750000Y-108300000D02*
X123144000Y-107030000D01*
X123144000Y-107030000D02*
X146004000Y-107030000D01*
%TO.C,R7*%
X147977500Y-139537258D02*
X147977500Y-139062742D01*
X149022500Y-139537258D02*
X149022500Y-139062742D01*
%TO.C,R5*%
X148527500Y-117437258D02*
X148527500Y-116962742D01*
X149572500Y-117437258D02*
X149572500Y-116962742D01*
%TO.C,C3*%
X155910000Y-141000000D02*
X155910000Y-132765000D01*
X155910000Y-132765000D02*
X151390000Y-132765000D01*
X151390000Y-132765000D02*
X151390000Y-141000000D01*
%TO.C,C1*%
X151640000Y-113150000D02*
X151640000Y-121385000D01*
X151640000Y-121385000D02*
X156160000Y-121385000D01*
X156160000Y-121385000D02*
X156160000Y-113150000D01*
%TO.C,J2*%
X125960000Y-152410000D02*
X125960000Y-153740000D01*
X124630000Y-152410000D02*
X125960000Y-152410000D01*
X123360000Y-152410000D02*
X123360000Y-155070000D01*
X123360000Y-155070000D02*
X115680000Y-155070000D01*
X123360000Y-152410000D02*
X115680000Y-152410000D01*
X115680000Y-152410000D02*
X115680000Y-155070000D01*
%TO.C,J1*%
X92400000Y-76290000D02*
X114244000Y-76290000D01*
X114244000Y-163110000D02*
X92400000Y-163110000D01*
%TO.C,J7*%
X175210000Y-86100000D02*
X175210000Y-76990000D01*
X175210000Y-76990000D02*
X165390000Y-76990000D01*
X165390000Y-76990000D02*
X165390000Y-84290000D01*
X165390000Y-84290000D02*
X163990000Y-84290000D01*
X163990000Y-84290000D02*
X163990000Y-86100000D01*
X175210000Y-86100000D02*
X175210000Y-95210000D01*
X175210000Y-95210000D02*
X165390000Y-95210000D01*
X165390000Y-95210000D02*
X165390000Y-87910000D01*
X165390000Y-87910000D02*
X163990000Y-87910000D01*
X163990000Y-87910000D02*
X163990000Y-86100000D01*
X175450000Y-79600000D02*
X175450000Y-76750000D01*
X175450000Y-76750000D02*
X172600000Y-76750000D01*
%TO.C,J6*%
X149100000Y-91490000D02*
X139990000Y-91490000D01*
X139990000Y-91490000D02*
X139990000Y-101310000D01*
X139990000Y-101310000D02*
X147290000Y-101310000D01*
X147290000Y-101310000D02*
X147290000Y-102710000D01*
X147290000Y-102710000D02*
X149100000Y-102710000D01*
X149100000Y-91490000D02*
X158210000Y-91490000D01*
X158210000Y-91490000D02*
X158210000Y-101310000D01*
X158210000Y-101310000D02*
X150910000Y-101310000D01*
X150910000Y-101310000D02*
X150910000Y-102710000D01*
X150910000Y-102710000D02*
X149100000Y-102710000D01*
X142600000Y-91250000D02*
X139750000Y-91250000D01*
X139750000Y-91250000D02*
X139750000Y-94100000D01*
%TO.C,J5*%
X149100000Y-87010000D02*
X158210000Y-87010000D01*
X158210000Y-87010000D02*
X158210000Y-77190000D01*
X158210000Y-77190000D02*
X150910000Y-77190000D01*
X150910000Y-77190000D02*
X150910000Y-75790000D01*
X150910000Y-75790000D02*
X149100000Y-75790000D01*
X149100000Y-87010000D02*
X139990000Y-87010000D01*
X139990000Y-87010000D02*
X139990000Y-77190000D01*
X139990000Y-77190000D02*
X147290000Y-77190000D01*
X147290000Y-77190000D02*
X147290000Y-75790000D01*
X147290000Y-75790000D02*
X149100000Y-75790000D01*
X155600000Y-87250000D02*
X158450000Y-87250000D01*
X158450000Y-87250000D02*
X158450000Y-84400000D01*
%TO.C,J4*%
X126000000Y-91490000D02*
X116890000Y-91490000D01*
X116890000Y-91490000D02*
X116890000Y-101310000D01*
X116890000Y-101310000D02*
X124190000Y-101310000D01*
X124190000Y-101310000D02*
X124190000Y-102710000D01*
X124190000Y-102710000D02*
X126000000Y-102710000D01*
X126000000Y-91490000D02*
X135110000Y-91490000D01*
X135110000Y-91490000D02*
X135110000Y-101310000D01*
X135110000Y-101310000D02*
X127810000Y-101310000D01*
X127810000Y-101310000D02*
X127810000Y-102710000D01*
X127810000Y-102710000D02*
X126000000Y-102710000D01*
X119500000Y-91250000D02*
X116650000Y-91250000D01*
X116650000Y-91250000D02*
X116650000Y-94100000D01*
%TO.C,J3*%
X126000000Y-87010000D02*
X135110000Y-87010000D01*
X135110000Y-87010000D02*
X135110000Y-77190000D01*
X135110000Y-77190000D02*
X127810000Y-77190000D01*
X127810000Y-77190000D02*
X127810000Y-75790000D01*
X127810000Y-75790000D02*
X126000000Y-75790000D01*
X126000000Y-87010000D02*
X116890000Y-87010000D01*
X116890000Y-87010000D02*
X116890000Y-77190000D01*
X116890000Y-77190000D02*
X124190000Y-77190000D01*
X124190000Y-77190000D02*
X124190000Y-75790000D01*
X124190000Y-75790000D02*
X126000000Y-75790000D01*
X132500000Y-87250000D02*
X135350000Y-87250000D01*
X135350000Y-87250000D02*
X135350000Y-84400000D01*
%TO.C,J9*%
X175210000Y-136500000D02*
X175210000Y-110590000D01*
X175210000Y-110590000D02*
X165390000Y-110590000D01*
X165390000Y-110590000D02*
X165390000Y-134690000D01*
X165390000Y-134690000D02*
X163990000Y-134690000D01*
X163990000Y-134690000D02*
X163990000Y-136500000D01*
X175210000Y-136500000D02*
X175210000Y-162410000D01*
X175210000Y-162410000D02*
X165390000Y-162410000D01*
X165390000Y-162410000D02*
X165390000Y-138310000D01*
X165390000Y-138310000D02*
X163990000Y-138310000D01*
X163990000Y-138310000D02*
X163990000Y-136500000D01*
X175450000Y-113200000D02*
X175450000Y-110350000D01*
X175450000Y-110350000D02*
X172600000Y-110350000D01*
%TO.C,J8*%
X175450000Y-97750000D02*
X172600000Y-97750000D01*
X175450000Y-100600000D02*
X175450000Y-97750000D01*
X163990000Y-104710000D02*
X163990000Y-102900000D01*
X165390000Y-104710000D02*
X163990000Y-104710000D01*
X165390000Y-107810000D02*
X165390000Y-104710000D01*
X175210000Y-107810000D02*
X165390000Y-107810000D01*
X175210000Y-102900000D02*
X175210000Y-107810000D01*
X163990000Y-101090000D02*
X163990000Y-102900000D01*
X165390000Y-101090000D02*
X163990000Y-101090000D01*
X165390000Y-97990000D02*
X165390000Y-101090000D01*
X175210000Y-97990000D02*
X165390000Y-97990000D01*
X175210000Y-102900000D02*
X175210000Y-97990000D01*
%TO.C,D2*%
X151900000Y-152905000D02*
X151900000Y-155845000D01*
X152140000Y-152905000D02*
X152140000Y-155845000D01*
X152020000Y-152905000D02*
X152020000Y-155845000D01*
X156560000Y-155845000D02*
X156560000Y-155715000D01*
X151120000Y-155845000D02*
X156560000Y-155845000D01*
X151120000Y-155715000D02*
X151120000Y-155845000D01*
X156560000Y-152905000D02*
X156560000Y-153035000D01*
X151120000Y-152905000D02*
X156560000Y-152905000D01*
X151120000Y-153035000D02*
X151120000Y-152905000D01*
%TO.C,D1*%
X151900000Y-149730000D02*
X151900000Y-152670000D01*
X152140000Y-149730000D02*
X152140000Y-152670000D01*
X152020000Y-149730000D02*
X152020000Y-152670000D01*
X156560000Y-152670000D02*
X156560000Y-152540000D01*
X151120000Y-152670000D02*
X156560000Y-152670000D01*
X151120000Y-152540000D02*
X151120000Y-152670000D01*
X156560000Y-149730000D02*
X156560000Y-149860000D01*
X151120000Y-149730000D02*
X156560000Y-149730000D01*
X151120000Y-149860000D02*
X151120000Y-149730000D01*
%TO.C,U4*%
D14*
X131263095Y-149767380D02*
X131263095Y-150576904D01*
X131310714Y-150672142D01*
X131358333Y-150719761D01*
X131453571Y-150767380D01*
X131644047Y-150767380D01*
X131739285Y-150719761D01*
X131786904Y-150672142D01*
X131834523Y-150576904D01*
X131834523Y-149767380D01*
X132739285Y-150100714D02*
X132739285Y-150767380D01*
X132501190Y-149719761D02*
X132263095Y-150434047D01*
X132882142Y-150434047D01*
%TO.C,R4*%
D10*
X139483333Y-148522380D02*
X139150000Y-148046190D01*
X138911904Y-148522380D02*
X138911904Y-147522380D01*
X139292857Y-147522380D01*
X139388095Y-147570000D01*
X139435714Y-147617619D01*
X139483333Y-147712857D01*
X139483333Y-147855714D01*
X139435714Y-147950952D01*
X139388095Y-147998571D01*
X139292857Y-148046190D01*
X138911904Y-148046190D01*
X140340476Y-147855714D02*
X140340476Y-148522380D01*
X140102380Y-147474761D02*
X139864285Y-148189047D01*
X140483333Y-148189047D01*
%TO.C,R3*%
X129633333Y-144372380D02*
X129300000Y-143896190D01*
X129061904Y-144372380D02*
X129061904Y-143372380D01*
X129442857Y-143372380D01*
X129538095Y-143420000D01*
X129585714Y-143467619D01*
X129633333Y-143562857D01*
X129633333Y-143705714D01*
X129585714Y-143800952D01*
X129538095Y-143848571D01*
X129442857Y-143896190D01*
X129061904Y-143896190D01*
X129966666Y-143372380D02*
X130585714Y-143372380D01*
X130252380Y-143753333D01*
X130395238Y-143753333D01*
X130490476Y-143800952D01*
X130538095Y-143848571D01*
X130585714Y-143943809D01*
X130585714Y-144181904D01*
X130538095Y-144277142D01*
X130490476Y-144324761D01*
X130395238Y-144372380D01*
X130109523Y-144372380D01*
X130014285Y-144324761D01*
X129966666Y-144277142D01*
%TO.C,R2*%
X134633333Y-144372380D02*
X134300000Y-143896190D01*
X134061904Y-144372380D02*
X134061904Y-143372380D01*
X134442857Y-143372380D01*
X134538095Y-143420000D01*
X134585714Y-143467619D01*
X134633333Y-143562857D01*
X134633333Y-143705714D01*
X134585714Y-143800952D01*
X134538095Y-143848571D01*
X134442857Y-143896190D01*
X134061904Y-143896190D01*
X135014285Y-143467619D02*
X135061904Y-143420000D01*
X135157142Y-143372380D01*
X135395238Y-143372380D01*
X135490476Y-143420000D01*
X135538095Y-143467619D01*
X135585714Y-143562857D01*
X135585714Y-143658095D01*
X135538095Y-143800952D01*
X134966666Y-144372380D01*
X135585714Y-144372380D01*
%TO.C,R1*%
X129683333Y-148572380D02*
X129350000Y-148096190D01*
X129111904Y-148572380D02*
X129111904Y-147572380D01*
X129492857Y-147572380D01*
X129588095Y-147620000D01*
X129635714Y-147667619D01*
X129683333Y-147762857D01*
X129683333Y-147905714D01*
X129635714Y-148000952D01*
X129588095Y-148048571D01*
X129492857Y-148096190D01*
X129111904Y-148096190D01*
X130635714Y-148572380D02*
X130064285Y-148572380D01*
X130350000Y-148572380D02*
X130350000Y-147572380D01*
X130254761Y-147715238D01*
X130159523Y-147810476D01*
X130064285Y-147858095D01*
%TO.C,C5*%
X134683333Y-151287142D02*
X134635714Y-151334761D01*
X134492857Y-151382380D01*
X134397619Y-151382380D01*
X134254761Y-151334761D01*
X134159523Y-151239523D01*
X134111904Y-151144285D01*
X134064285Y-150953809D01*
X134064285Y-150810952D01*
X134111904Y-150620476D01*
X134159523Y-150525238D01*
X134254761Y-150430000D01*
X134397619Y-150382380D01*
X134492857Y-150382380D01*
X134635714Y-150430000D01*
X134683333Y-150477619D01*
X135588095Y-150382380D02*
X135111904Y-150382380D01*
X135064285Y-150858571D01*
X135111904Y-150810952D01*
X135207142Y-150763333D01*
X135445238Y-150763333D01*
X135540476Y-150810952D01*
X135588095Y-150858571D01*
X135635714Y-150953809D01*
X135635714Y-151191904D01*
X135588095Y-151287142D01*
X135540476Y-151334761D01*
X135445238Y-151382380D01*
X135207142Y-151382380D01*
X135111904Y-151334761D01*
X135064285Y-151287142D01*
%TO.C,C4*%
X130483333Y-160387142D02*
X130435714Y-160434761D01*
X130292857Y-160482380D01*
X130197619Y-160482380D01*
X130054761Y-160434761D01*
X129959523Y-160339523D01*
X129911904Y-160244285D01*
X129864285Y-160053809D01*
X129864285Y-159910952D01*
X129911904Y-159720476D01*
X129959523Y-159625238D01*
X130054761Y-159530000D01*
X130197619Y-159482380D01*
X130292857Y-159482380D01*
X130435714Y-159530000D01*
X130483333Y-159577619D01*
X131340476Y-159815714D02*
X131340476Y-160482380D01*
X131102380Y-159434761D02*
X130864285Y-160149047D01*
X131483333Y-160149047D01*
%TO.C,U3*%
X133518380Y-136341904D02*
X134327904Y-136341904D01*
X134423142Y-136294285D01*
X134470761Y-136246666D01*
X134518380Y-136151428D01*
X134518380Y-135960952D01*
X134470761Y-135865714D01*
X134423142Y-135818095D01*
X134327904Y-135770476D01*
X133518380Y-135770476D01*
X133518380Y-135389523D02*
X133518380Y-134770476D01*
X133899333Y-135103809D01*
X133899333Y-134960952D01*
X133946952Y-134865714D01*
X133994571Y-134818095D01*
X134089809Y-134770476D01*
X134327904Y-134770476D01*
X134423142Y-134818095D01*
X134470761Y-134865714D01*
X134518380Y-134960952D01*
X134518380Y-135246666D01*
X134470761Y-135341904D01*
X134423142Y-135389523D01*
%TO.C,U1*%
X133518380Y-114141904D02*
X134327904Y-114141904D01*
X134423142Y-114094285D01*
X134470761Y-114046666D01*
X134518380Y-113951428D01*
X134518380Y-113760952D01*
X134470761Y-113665714D01*
X134423142Y-113618095D01*
X134327904Y-113570476D01*
X133518380Y-113570476D01*
X134518380Y-112570476D02*
X134518380Y-113141904D01*
X134518380Y-112856190D02*
X133518380Y-112856190D01*
X133661238Y-112951428D01*
X133756476Y-113046666D01*
X133804095Y-113141904D01*
%TO.C,R7*%
X147522380Y-139466666D02*
X147046190Y-139800000D01*
X147522380Y-140038095D02*
X146522380Y-140038095D01*
X146522380Y-139657142D01*
X146570000Y-139561904D01*
X146617619Y-139514285D01*
X146712857Y-139466666D01*
X146855714Y-139466666D01*
X146950952Y-139514285D01*
X146998571Y-139561904D01*
X147046190Y-139657142D01*
X147046190Y-140038095D01*
X146522380Y-139133333D02*
X146522380Y-138466666D01*
X147522380Y-138895238D01*
%TO.C,R5*%
X148072380Y-117366666D02*
X147596190Y-117700000D01*
X148072380Y-117938095D02*
X147072380Y-117938095D01*
X147072380Y-117557142D01*
X147120000Y-117461904D01*
X147167619Y-117414285D01*
X147262857Y-117366666D01*
X147405714Y-117366666D01*
X147500952Y-117414285D01*
X147548571Y-117461904D01*
X147596190Y-117557142D01*
X147596190Y-117938095D01*
X147072380Y-116461904D02*
X147072380Y-116938095D01*
X147548571Y-116985714D01*
X147500952Y-116938095D01*
X147453333Y-116842857D01*
X147453333Y-116604761D01*
X147500952Y-116509523D01*
X147548571Y-116461904D01*
X147643809Y-116414285D01*
X147881904Y-116414285D01*
X147977142Y-116461904D01*
X148024761Y-116509523D01*
X148072380Y-116604761D01*
X148072380Y-116842857D01*
X148024761Y-116938095D01*
X147977142Y-116985714D01*
%TO.C,C3*%
X157107142Y-137516666D02*
X157154761Y-137564285D01*
X157202380Y-137707142D01*
X157202380Y-137802380D01*
X157154761Y-137945238D01*
X157059523Y-138040476D01*
X156964285Y-138088095D01*
X156773809Y-138135714D01*
X156630952Y-138135714D01*
X156440476Y-138088095D01*
X156345238Y-138040476D01*
X156250000Y-137945238D01*
X156202380Y-137802380D01*
X156202380Y-137707142D01*
X156250000Y-137564285D01*
X156297619Y-137516666D01*
X156202380Y-137183333D02*
X156202380Y-136564285D01*
X156583333Y-136897619D01*
X156583333Y-136754761D01*
X156630952Y-136659523D01*
X156678571Y-136611904D01*
X156773809Y-136564285D01*
X157011904Y-136564285D01*
X157107142Y-136611904D01*
X157154761Y-136659523D01*
X157202380Y-136754761D01*
X157202380Y-137040476D01*
X157154761Y-137135714D01*
X157107142Y-137183333D01*
%TO.C,C1*%
X151157142Y-116966666D02*
X151204761Y-117014285D01*
X151252380Y-117157142D01*
X151252380Y-117252380D01*
X151204761Y-117395238D01*
X151109523Y-117490476D01*
X151014285Y-117538095D01*
X150823809Y-117585714D01*
X150680952Y-117585714D01*
X150490476Y-117538095D01*
X150395238Y-117490476D01*
X150300000Y-117395238D01*
X150252380Y-117252380D01*
X150252380Y-117157142D01*
X150300000Y-117014285D01*
X150347619Y-116966666D01*
X151252380Y-116014285D02*
X151252380Y-116585714D01*
X151252380Y-116300000D02*
X150252380Y-116300000D01*
X150395238Y-116395238D01*
X150490476Y-116490476D01*
X150538095Y-116585714D01*
%TO.C,J1*%
X99980380Y-120033333D02*
X100694666Y-120033333D01*
X100837523Y-120080952D01*
X100932761Y-120176190D01*
X100980380Y-120319047D01*
X100980380Y-120414285D01*
X100980380Y-119033333D02*
X100980380Y-119604761D01*
X100980380Y-119319047D02*
X99980380Y-119319047D01*
X100123238Y-119414285D01*
X100218476Y-119509523D01*
X100266095Y-119604761D01*
%TO.C,J7*%
X175900000Y-90504761D02*
X175852380Y-90600000D01*
X175852380Y-90742857D01*
X175900000Y-90885714D01*
X175995238Y-90980952D01*
X176090476Y-91028571D01*
X176280952Y-91076190D01*
X176423809Y-91076190D01*
X176614285Y-91028571D01*
X176709523Y-90980952D01*
X176804761Y-90885714D01*
X176852380Y-90742857D01*
X176852380Y-90647619D01*
X176804761Y-90504761D01*
X176757142Y-90457142D01*
X176423809Y-90457142D01*
X176423809Y-90647619D01*
X175852380Y-90123809D02*
X176852380Y-89885714D01*
X176138095Y-89695238D01*
X176852380Y-89504761D01*
X175852380Y-89266666D01*
X176947619Y-89123809D02*
X176947619Y-88361904D01*
X176852380Y-88123809D02*
X175852380Y-88123809D01*
X175852380Y-87742857D01*
X175900000Y-87647619D01*
X175947619Y-87600000D01*
X176042857Y-87552380D01*
X176185714Y-87552380D01*
X176280952Y-87600000D01*
X176328571Y-87647619D01*
X176376190Y-87742857D01*
X176376190Y-88123809D01*
X176757142Y-86552380D02*
X176804761Y-86600000D01*
X176852380Y-86742857D01*
X176852380Y-86838095D01*
X176804761Y-86980952D01*
X176709523Y-87076190D01*
X176614285Y-87123809D01*
X176423809Y-87171428D01*
X176280952Y-87171428D01*
X176090476Y-87123809D01*
X175995238Y-87076190D01*
X175900000Y-86980952D01*
X175852380Y-86838095D01*
X175852380Y-86742857D01*
X175900000Y-86600000D01*
X175947619Y-86552380D01*
X176852380Y-86123809D02*
X175852380Y-86123809D01*
X176804761Y-85266666D02*
X176852380Y-85361904D01*
X176852380Y-85552380D01*
X176804761Y-85647619D01*
X176709523Y-85695238D01*
X176328571Y-85695238D01*
X176233333Y-85647619D01*
X176185714Y-85552380D01*
X176185714Y-85361904D01*
X176233333Y-85266666D01*
X176328571Y-85219047D01*
X176423809Y-85219047D01*
X176519047Y-85695238D01*
X175804761Y-84076190D02*
X177090476Y-84933333D01*
X176757142Y-83171428D02*
X176804761Y-83219047D01*
X176852380Y-83361904D01*
X176852380Y-83457142D01*
X176804761Y-83600000D01*
X176709523Y-83695238D01*
X176614285Y-83742857D01*
X176423809Y-83790476D01*
X176280952Y-83790476D01*
X176090476Y-83742857D01*
X175995238Y-83695238D01*
X175900000Y-83600000D01*
X175852380Y-83457142D01*
X175852380Y-83361904D01*
X175900000Y-83219047D01*
X175947619Y-83171428D01*
X176852380Y-82742857D02*
X175852380Y-82742857D01*
X175852380Y-82361904D01*
X175900000Y-82266666D01*
X175947619Y-82219047D01*
X176042857Y-82171428D01*
X176185714Y-82171428D01*
X176280952Y-82219047D01*
X176328571Y-82266666D01*
X176376190Y-82361904D01*
X176376190Y-82742857D01*
X175852380Y-81742857D02*
X176661904Y-81742857D01*
X176757142Y-81695238D01*
X176804761Y-81647619D01*
X176852380Y-81552380D01*
X176852380Y-81361904D01*
X176804761Y-81266666D01*
X176757142Y-81219047D01*
X176661904Y-81171428D01*
X175852380Y-81171428D01*
%TO.C,J6*%
X159100000Y-101004761D02*
X159052380Y-101100000D01*
X159052380Y-101242857D01*
X159100000Y-101385714D01*
X159195238Y-101480952D01*
X159290476Y-101528571D01*
X159480952Y-101576190D01*
X159623809Y-101576190D01*
X159814285Y-101528571D01*
X159909523Y-101480952D01*
X160004761Y-101385714D01*
X160052380Y-101242857D01*
X160052380Y-101147619D01*
X160004761Y-101004761D01*
X159957142Y-100957142D01*
X159623809Y-100957142D01*
X159623809Y-101147619D01*
X159052380Y-100623809D02*
X160052380Y-100385714D01*
X159338095Y-100195238D01*
X160052380Y-100004761D01*
X159052380Y-99766666D01*
X160147619Y-99623809D02*
X160147619Y-98861904D01*
X160052380Y-98623809D02*
X159052380Y-98623809D01*
X159052380Y-98242857D01*
X159100000Y-98147619D01*
X159147619Y-98100000D01*
X159242857Y-98052380D01*
X159385714Y-98052380D01*
X159480952Y-98100000D01*
X159528571Y-98147619D01*
X159576190Y-98242857D01*
X159576190Y-98623809D01*
X159957142Y-97052380D02*
X160004761Y-97100000D01*
X160052380Y-97242857D01*
X160052380Y-97338095D01*
X160004761Y-97480952D01*
X159909523Y-97576190D01*
X159814285Y-97623809D01*
X159623809Y-97671428D01*
X159480952Y-97671428D01*
X159290476Y-97623809D01*
X159195238Y-97576190D01*
X159100000Y-97480952D01*
X159052380Y-97338095D01*
X159052380Y-97242857D01*
X159100000Y-97100000D01*
X159147619Y-97052380D01*
X160052380Y-96623809D02*
X159052380Y-96623809D01*
X160004761Y-95766666D02*
X160052380Y-95861904D01*
X160052380Y-96052380D01*
X160004761Y-96147619D01*
X159909523Y-96195238D01*
X159528571Y-96195238D01*
X159433333Y-96147619D01*
X159385714Y-96052380D01*
X159385714Y-95861904D01*
X159433333Y-95766666D01*
X159528571Y-95719047D01*
X159623809Y-95719047D01*
X159719047Y-96195238D01*
X159004761Y-94576190D02*
X160290476Y-95433333D01*
X159957142Y-93671428D02*
X160004761Y-93719047D01*
X160052380Y-93861904D01*
X160052380Y-93957142D01*
X160004761Y-94100000D01*
X159909523Y-94195238D01*
X159814285Y-94242857D01*
X159623809Y-94290476D01*
X159480952Y-94290476D01*
X159290476Y-94242857D01*
X159195238Y-94195238D01*
X159100000Y-94100000D01*
X159052380Y-93957142D01*
X159052380Y-93861904D01*
X159100000Y-93719047D01*
X159147619Y-93671428D01*
X160052380Y-93242857D02*
X159052380Y-93242857D01*
X159052380Y-92861904D01*
X159100000Y-92766666D01*
X159147619Y-92719047D01*
X159242857Y-92671428D01*
X159385714Y-92671428D01*
X159480952Y-92719047D01*
X159528571Y-92766666D01*
X159576190Y-92861904D01*
X159576190Y-93242857D01*
X159052380Y-92242857D02*
X159861904Y-92242857D01*
X159957142Y-92195238D01*
X160004761Y-92147619D01*
X160052380Y-92052380D01*
X160052380Y-91861904D01*
X160004761Y-91766666D01*
X159957142Y-91719047D01*
X159861904Y-91671428D01*
X159052380Y-91671428D01*
%TO.C,J5*%
X159100000Y-86304761D02*
X159052380Y-86400000D01*
X159052380Y-86542857D01*
X159100000Y-86685714D01*
X159195238Y-86780952D01*
X159290476Y-86828571D01*
X159480952Y-86876190D01*
X159623809Y-86876190D01*
X159814285Y-86828571D01*
X159909523Y-86780952D01*
X160004761Y-86685714D01*
X160052380Y-86542857D01*
X160052380Y-86447619D01*
X160004761Y-86304761D01*
X159957142Y-86257142D01*
X159623809Y-86257142D01*
X159623809Y-86447619D01*
X159052380Y-85923809D02*
X160052380Y-85685714D01*
X159338095Y-85495238D01*
X160052380Y-85304761D01*
X159052380Y-85066666D01*
X160147619Y-84923809D02*
X160147619Y-84161904D01*
X160052380Y-83923809D02*
X159052380Y-83923809D01*
X159052380Y-83542857D01*
X159100000Y-83447619D01*
X159147619Y-83400000D01*
X159242857Y-83352380D01*
X159385714Y-83352380D01*
X159480952Y-83400000D01*
X159528571Y-83447619D01*
X159576190Y-83542857D01*
X159576190Y-83923809D01*
X159957142Y-82352380D02*
X160004761Y-82400000D01*
X160052380Y-82542857D01*
X160052380Y-82638095D01*
X160004761Y-82780952D01*
X159909523Y-82876190D01*
X159814285Y-82923809D01*
X159623809Y-82971428D01*
X159480952Y-82971428D01*
X159290476Y-82923809D01*
X159195238Y-82876190D01*
X159100000Y-82780952D01*
X159052380Y-82638095D01*
X159052380Y-82542857D01*
X159100000Y-82400000D01*
X159147619Y-82352380D01*
X160052380Y-81923809D02*
X159052380Y-81923809D01*
X160004761Y-81066666D02*
X160052380Y-81161904D01*
X160052380Y-81352380D01*
X160004761Y-81447619D01*
X159909523Y-81495238D01*
X159528571Y-81495238D01*
X159433333Y-81447619D01*
X159385714Y-81352380D01*
X159385714Y-81161904D01*
X159433333Y-81066666D01*
X159528571Y-81019047D01*
X159623809Y-81019047D01*
X159719047Y-81495238D01*
X159004761Y-79876190D02*
X160290476Y-80733333D01*
X159957142Y-78971428D02*
X160004761Y-79019047D01*
X160052380Y-79161904D01*
X160052380Y-79257142D01*
X160004761Y-79400000D01*
X159909523Y-79495238D01*
X159814285Y-79542857D01*
X159623809Y-79590476D01*
X159480952Y-79590476D01*
X159290476Y-79542857D01*
X159195238Y-79495238D01*
X159100000Y-79400000D01*
X159052380Y-79257142D01*
X159052380Y-79161904D01*
X159100000Y-79019047D01*
X159147619Y-78971428D01*
X160052380Y-78542857D02*
X159052380Y-78542857D01*
X159052380Y-78161904D01*
X159100000Y-78066666D01*
X159147619Y-78019047D01*
X159242857Y-77971428D01*
X159385714Y-77971428D01*
X159480952Y-78019047D01*
X159528571Y-78066666D01*
X159576190Y-78161904D01*
X159576190Y-78542857D01*
X159052380Y-77542857D02*
X159861904Y-77542857D01*
X159957142Y-77495238D01*
X160004761Y-77447619D01*
X160052380Y-77352380D01*
X160052380Y-77161904D01*
X160004761Y-77066666D01*
X159957142Y-77019047D01*
X159861904Y-76971428D01*
X159052380Y-76971428D01*
%TO.C,J4*%
X136000000Y-101004761D02*
X135952380Y-101100000D01*
X135952380Y-101242857D01*
X136000000Y-101385714D01*
X136095238Y-101480952D01*
X136190476Y-101528571D01*
X136380952Y-101576190D01*
X136523809Y-101576190D01*
X136714285Y-101528571D01*
X136809523Y-101480952D01*
X136904761Y-101385714D01*
X136952380Y-101242857D01*
X136952380Y-101147619D01*
X136904761Y-101004761D01*
X136857142Y-100957142D01*
X136523809Y-100957142D01*
X136523809Y-101147619D01*
X135952380Y-100623809D02*
X136952380Y-100385714D01*
X136238095Y-100195238D01*
X136952380Y-100004761D01*
X135952380Y-99766666D01*
X137047619Y-99623809D02*
X137047619Y-98861904D01*
X136952380Y-98623809D02*
X135952380Y-98623809D01*
X135952380Y-98242857D01*
X136000000Y-98147619D01*
X136047619Y-98100000D01*
X136142857Y-98052380D01*
X136285714Y-98052380D01*
X136380952Y-98100000D01*
X136428571Y-98147619D01*
X136476190Y-98242857D01*
X136476190Y-98623809D01*
X136857142Y-97052380D02*
X136904761Y-97100000D01*
X136952380Y-97242857D01*
X136952380Y-97338095D01*
X136904761Y-97480952D01*
X136809523Y-97576190D01*
X136714285Y-97623809D01*
X136523809Y-97671428D01*
X136380952Y-97671428D01*
X136190476Y-97623809D01*
X136095238Y-97576190D01*
X136000000Y-97480952D01*
X135952380Y-97338095D01*
X135952380Y-97242857D01*
X136000000Y-97100000D01*
X136047619Y-97052380D01*
X136952380Y-96623809D02*
X135952380Y-96623809D01*
X136904761Y-95766666D02*
X136952380Y-95861904D01*
X136952380Y-96052380D01*
X136904761Y-96147619D01*
X136809523Y-96195238D01*
X136428571Y-96195238D01*
X136333333Y-96147619D01*
X136285714Y-96052380D01*
X136285714Y-95861904D01*
X136333333Y-95766666D01*
X136428571Y-95719047D01*
X136523809Y-95719047D01*
X136619047Y-96195238D01*
X135904761Y-94576190D02*
X137190476Y-95433333D01*
X136857142Y-93671428D02*
X136904761Y-93719047D01*
X136952380Y-93861904D01*
X136952380Y-93957142D01*
X136904761Y-94100000D01*
X136809523Y-94195238D01*
X136714285Y-94242857D01*
X136523809Y-94290476D01*
X136380952Y-94290476D01*
X136190476Y-94242857D01*
X136095238Y-94195238D01*
X136000000Y-94100000D01*
X135952380Y-93957142D01*
X135952380Y-93861904D01*
X136000000Y-93719047D01*
X136047619Y-93671428D01*
X136952380Y-93242857D02*
X135952380Y-93242857D01*
X135952380Y-92861904D01*
X136000000Y-92766666D01*
X136047619Y-92719047D01*
X136142857Y-92671428D01*
X136285714Y-92671428D01*
X136380952Y-92719047D01*
X136428571Y-92766666D01*
X136476190Y-92861904D01*
X136476190Y-93242857D01*
X135952380Y-92242857D02*
X136761904Y-92242857D01*
X136857142Y-92195238D01*
X136904761Y-92147619D01*
X136952380Y-92052380D01*
X136952380Y-91861904D01*
X136904761Y-91766666D01*
X136857142Y-91719047D01*
X136761904Y-91671428D01*
X135952380Y-91671428D01*
%TO.C,J3*%
X136000000Y-86304761D02*
X135952380Y-86400000D01*
X135952380Y-86542857D01*
X136000000Y-86685714D01*
X136095238Y-86780952D01*
X136190476Y-86828571D01*
X136380952Y-86876190D01*
X136523809Y-86876190D01*
X136714285Y-86828571D01*
X136809523Y-86780952D01*
X136904761Y-86685714D01*
X136952380Y-86542857D01*
X136952380Y-86447619D01*
X136904761Y-86304761D01*
X136857142Y-86257142D01*
X136523809Y-86257142D01*
X136523809Y-86447619D01*
X135952380Y-85923809D02*
X136952380Y-85685714D01*
X136238095Y-85495238D01*
X136952380Y-85304761D01*
X135952380Y-85066666D01*
X137047619Y-84923809D02*
X137047619Y-84161904D01*
X136952380Y-83923809D02*
X135952380Y-83923809D01*
X135952380Y-83542857D01*
X136000000Y-83447619D01*
X136047619Y-83400000D01*
X136142857Y-83352380D01*
X136285714Y-83352380D01*
X136380952Y-83400000D01*
X136428571Y-83447619D01*
X136476190Y-83542857D01*
X136476190Y-83923809D01*
X136857142Y-82352380D02*
X136904761Y-82400000D01*
X136952380Y-82542857D01*
X136952380Y-82638095D01*
X136904761Y-82780952D01*
X136809523Y-82876190D01*
X136714285Y-82923809D01*
X136523809Y-82971428D01*
X136380952Y-82971428D01*
X136190476Y-82923809D01*
X136095238Y-82876190D01*
X136000000Y-82780952D01*
X135952380Y-82638095D01*
X135952380Y-82542857D01*
X136000000Y-82400000D01*
X136047619Y-82352380D01*
X136952380Y-81923809D02*
X135952380Y-81923809D01*
X136904761Y-81066666D02*
X136952380Y-81161904D01*
X136952380Y-81352380D01*
X136904761Y-81447619D01*
X136809523Y-81495238D01*
X136428571Y-81495238D01*
X136333333Y-81447619D01*
X136285714Y-81352380D01*
X136285714Y-81161904D01*
X136333333Y-81066666D01*
X136428571Y-81019047D01*
X136523809Y-81019047D01*
X136619047Y-81495238D01*
X135904761Y-79876190D02*
X137190476Y-80733333D01*
X136857142Y-78971428D02*
X136904761Y-79019047D01*
X136952380Y-79161904D01*
X136952380Y-79257142D01*
X136904761Y-79400000D01*
X136809523Y-79495238D01*
X136714285Y-79542857D01*
X136523809Y-79590476D01*
X136380952Y-79590476D01*
X136190476Y-79542857D01*
X136095238Y-79495238D01*
X136000000Y-79400000D01*
X135952380Y-79257142D01*
X135952380Y-79161904D01*
X136000000Y-79019047D01*
X136047619Y-78971428D01*
X136952380Y-78542857D02*
X135952380Y-78542857D01*
X135952380Y-78161904D01*
X136000000Y-78066666D01*
X136047619Y-78019047D01*
X136142857Y-77971428D01*
X136285714Y-77971428D01*
X136380952Y-78019047D01*
X136428571Y-78066666D01*
X136476190Y-78161904D01*
X136476190Y-78542857D01*
X135952380Y-77542857D02*
X136761904Y-77542857D01*
X136857142Y-77495238D01*
X136904761Y-77447619D01*
X136952380Y-77352380D01*
X136952380Y-77161904D01*
X136904761Y-77066666D01*
X136857142Y-77019047D01*
X136761904Y-76971428D01*
X135952380Y-76971428D01*
%TO.C,J9*%
X175900000Y-140309523D02*
X175852380Y-140404761D01*
X175852380Y-140547619D01*
X175900000Y-140690476D01*
X175995238Y-140785714D01*
X176090476Y-140833333D01*
X176280952Y-140880952D01*
X176423809Y-140880952D01*
X176614285Y-140833333D01*
X176709523Y-140785714D01*
X176804761Y-140690476D01*
X176852380Y-140547619D01*
X176852380Y-140452380D01*
X176804761Y-140309523D01*
X176757142Y-140261904D01*
X176423809Y-140261904D01*
X176423809Y-140452380D01*
X175852380Y-139928571D02*
X176852380Y-139690476D01*
X176138095Y-139500000D01*
X176852380Y-139309523D01*
X175852380Y-139071428D01*
X176947619Y-138928571D02*
X176947619Y-138166666D01*
X175947619Y-137976190D02*
X175900000Y-137928571D01*
X175852380Y-137833333D01*
X175852380Y-137595238D01*
X175900000Y-137500000D01*
X175947619Y-137452380D01*
X176042857Y-137404761D01*
X176138095Y-137404761D01*
X176280952Y-137452380D01*
X176852380Y-138023809D01*
X176852380Y-137404761D01*
X176185714Y-136547619D02*
X176852380Y-136547619D01*
X175804761Y-136785714D02*
X176519047Y-137023809D01*
X176519047Y-136404761D01*
X176852380Y-136023809D02*
X175852380Y-136023809D01*
X175852380Y-135642857D01*
X175900000Y-135547619D01*
X175947619Y-135500000D01*
X176042857Y-135452380D01*
X176185714Y-135452380D01*
X176280952Y-135500000D01*
X176328571Y-135547619D01*
X176376190Y-135642857D01*
X176376190Y-136023809D01*
X176947619Y-135261904D02*
X176947619Y-134500000D01*
X176566666Y-134309523D02*
X176566666Y-133833333D01*
X176852380Y-134404761D02*
X175852380Y-134071428D01*
X176852380Y-133738095D01*
X175852380Y-133547619D02*
X175852380Y-132976190D01*
X176852380Y-133261904D02*
X175852380Y-133261904D01*
X175852380Y-132738095D02*
X176852380Y-132071428D01*
X175852380Y-132071428D02*
X176852380Y-132738095D01*
%TO.C,J8*%
X176852380Y-106090476D02*
X175852380Y-106090476D01*
X176852380Y-105614285D02*
X175852380Y-105614285D01*
X175852380Y-105376190D01*
X175900000Y-105233333D01*
X175995238Y-105138095D01*
X176090476Y-105090476D01*
X176280952Y-105042857D01*
X176423809Y-105042857D01*
X176614285Y-105090476D01*
X176709523Y-105138095D01*
X176804761Y-105233333D01*
X176852380Y-105376190D01*
X176852380Y-105614285D01*
X176328571Y-104614285D02*
X176328571Y-104280952D01*
X176852380Y-104138095D02*
X176852380Y-104614285D01*
X175852380Y-104614285D01*
X175852380Y-104138095D01*
X175804761Y-102995238D02*
X177090476Y-103852380D01*
X176804761Y-102709523D02*
X176852380Y-102566666D01*
X176852380Y-102328571D01*
X176804761Y-102233333D01*
X176757142Y-102185714D01*
X176661904Y-102138095D01*
X176566666Y-102138095D01*
X176471428Y-102185714D01*
X176423809Y-102233333D01*
X176376190Y-102328571D01*
X176328571Y-102519047D01*
X176280952Y-102614285D01*
X176233333Y-102661904D01*
X176138095Y-102709523D01*
X176042857Y-102709523D01*
X175947619Y-102661904D01*
X175900000Y-102614285D01*
X175852380Y-102519047D01*
X175852380Y-102280952D01*
X175900000Y-102138095D01*
X176566666Y-101757142D02*
X176566666Y-101280952D01*
X176852380Y-101852380D02*
X175852380Y-101519047D01*
X176852380Y-101185714D01*
X175852380Y-100995238D02*
X175852380Y-100423809D01*
X176852380Y-100709523D02*
X175852380Y-100709523D01*
X176566666Y-100138095D02*
X176566666Y-99661904D01*
X176852380Y-100233333D02*
X175852380Y-99900000D01*
X176852380Y-99566666D01*
%TO.C,D2*%
X153101904Y-154827380D02*
X153101904Y-153827380D01*
X153340000Y-153827380D01*
X153482857Y-153875000D01*
X153578095Y-153970238D01*
X153625714Y-154065476D01*
X153673333Y-154255952D01*
X153673333Y-154398809D01*
X153625714Y-154589285D01*
X153578095Y-154684523D01*
X153482857Y-154779761D01*
X153340000Y-154827380D01*
X153101904Y-154827380D01*
X154054285Y-153922619D02*
X154101904Y-153875000D01*
X154197142Y-153827380D01*
X154435238Y-153827380D01*
X154530476Y-153875000D01*
X154578095Y-153922619D01*
X154625714Y-154017857D01*
X154625714Y-154113095D01*
X154578095Y-154255952D01*
X154006666Y-154827380D01*
X154625714Y-154827380D01*
%TO.C,D1*%
X153101904Y-151652380D02*
X153101904Y-150652380D01*
X153340000Y-150652380D01*
X153482857Y-150700000D01*
X153578095Y-150795238D01*
X153625714Y-150890476D01*
X153673333Y-151080952D01*
X153673333Y-151223809D01*
X153625714Y-151414285D01*
X153578095Y-151509523D01*
X153482857Y-151604761D01*
X153340000Y-151652380D01*
X153101904Y-151652380D01*
X154625714Y-151652380D02*
X154054285Y-151652380D01*
X154340000Y-151652380D02*
X154340000Y-150652380D01*
X154244761Y-150795238D01*
X154149523Y-150890476D01*
X154054285Y-150938095D01*
%TD*%
M02*
