M48
; DRILL file {KiCad (5.1.9)-1} date 05/19/21 11:39:21
; FORMAT={-:-/ absolute / inch / decimal}
; #@! TF.CreationDate,2021-05-19T11:39:21+08:00
; #@! TF.GenerationSoftware,Kicad,Pcbnew,(5.1.9)-1
; #@! TF.FileFunction,Plated,1,2,PTH
FMAT,2
INCH
T1C0.0118
T2C0.0394
T3C0.0400
T4C0.0433
T5C0.0709
%
G90
G05
T1
X4.9724Y-6.1791
X4.9724Y-6.2756
X5.3937Y-5.8858
X5.3996Y-6.0374
X5.5295Y-5.7992
X5.5315Y-5.0256
X5.6378Y-5.8661
X5.6516Y-6.0374
X5.7362Y-5.7539
X6.2736Y-5.7874
X6.3406Y-5.7343
T2
X4.2441Y-3.1626
X4.2441Y-3.2626
X4.2441Y-3.3626
X4.2441Y-3.4626
X4.2441Y-3.5626
X4.2441Y-3.6626
X4.2441Y-3.7626
X4.2441Y-3.8626
X4.2441Y-3.9626
X4.2441Y-4.0626
X4.2441Y-4.1626
X4.2441Y-4.2626
X4.2441Y-4.3626
X4.2441Y-4.4626
X4.2441Y-4.5626
X4.2441Y-4.6626
X4.2441Y-4.7626
X4.2441Y-4.8626
X4.2441Y-4.9626
X4.2441Y-5.0626
X4.2441Y-5.1626
X4.2441Y-5.2626
X4.2441Y-5.3626
X4.2441Y-5.4626
X4.2441Y-5.5626
X4.2441Y-5.6626
X4.2441Y-5.7626
X4.2441Y-5.8626
X4.2441Y-5.9626
X4.2441Y-6.0626
X4.2441Y-6.1626
X4.2441Y-6.2626
X4.6067Y-6.0528
X4.7067Y-6.0528
X4.8067Y-6.0528
X4.9067Y-6.0528
T3
X5.6299Y-4.3819
X5.7047Y-4.3819
T4
X4.3091Y-3.1626
X4.3091Y-3.2626
X4.3091Y-3.3626
X4.3091Y-3.4626
X4.3091Y-3.5626
X4.3091Y-3.6626
X4.3091Y-3.7626
X4.3091Y-3.8626
X4.3091Y-3.9626
X4.3091Y-4.0626
X4.3091Y-4.1626
X4.3091Y-4.2626
X4.3091Y-4.3626
X4.3091Y-4.4626
X4.3091Y-4.5626
X4.3091Y-4.6626
X4.3091Y-4.7626
X4.3091Y-4.8626
X4.3091Y-4.9626
X4.3091Y-5.0626
X4.3091Y-5.1626
X4.3091Y-5.2626
X4.3091Y-5.3626
X4.3091Y-5.4626
X4.3091Y-5.5626
X4.3091Y-5.6626
X4.3091Y-5.7626
X4.3091Y-5.8626
X4.3091Y-5.9626
X4.3091Y-6.0626
X4.3091Y-6.1626
X4.3091Y-6.2626
X5.9067Y-5.9528
X5.9067Y-6.0778
X6.2067Y-5.9528
X6.2067Y-6.0778
T5
X4.7126Y-3.1417
X4.7126Y-3.3071
X4.7126Y-3.7205
X4.7126Y-3.8858
X4.878Y-3.1417
X4.878Y-3.3071
X4.878Y-3.7205
X4.878Y-3.8858
X5.0433Y-3.1417
X5.0433Y-3.3071
X5.0433Y-3.7205
X5.0433Y-3.8858
X5.2087Y-3.1417
X5.2087Y-3.3071
X5.2087Y-3.7205
X5.2087Y-3.8858
X5.622Y-3.1417
X5.622Y-3.3071
X5.622Y-3.7205
X5.622Y-3.8858
X5.7874Y-3.1417
X5.7874Y-3.3071
X5.7874Y-3.7205
X5.7874Y-3.8858
X5.9528Y-3.1417
X5.9528Y-3.3071
X5.9528Y-3.7205
X5.9528Y-3.8858
X6.1181Y-3.1417
X6.1181Y-3.3071
X6.1181Y-3.7205
X6.1181Y-3.8858
X6.6142Y-3.1417
X6.6142Y-3.3071
X6.6142Y-3.4724
X6.6142Y-3.6378
X6.6142Y-3.9685
X6.6142Y-4.1339
X6.6142Y-4.4646
X6.6142Y-4.6299
X6.6142Y-4.7953
X6.6142Y-4.9606
X6.6142Y-5.126
X6.6142Y-5.2913
X6.6142Y-5.4567
X6.6142Y-5.622
X6.6142Y-5.7874
X6.6142Y-5.9528
X6.6142Y-6.1181
X6.6142Y-6.2835
X6.7795Y-3.1417
X6.7795Y-3.3071
X6.7795Y-3.4724
X6.7795Y-3.6378
X6.7795Y-3.9685
X6.7795Y-4.1339
X6.7795Y-4.4646
X6.7795Y-4.6299
X6.7795Y-4.7953
X6.7795Y-4.9606
X6.7795Y-5.126
X6.7795Y-5.2913
X6.7795Y-5.4567
X6.7795Y-5.622
X6.7795Y-5.7874
X6.7795Y-5.9528
X6.7795Y-6.1181
X6.7795Y-6.2835
T4
G00X4.4591Y-3.1626
M15
G01X4.4441Y-3.1626
M16
G05
G00X4.4591Y-3.2626
M15
G01X4.4441Y-3.2626
M16
G05
G00X4.4591Y-3.3626
M15
G01X4.4441Y-3.3626
M16
G05
G00X4.4591Y-3.4626
M15
G01X4.4441Y-3.4626
M16
G05
G00X4.4591Y-3.5626
M15
G01X4.4441Y-3.5626
M16
G05
G00X4.4591Y-3.6626
M15
G01X4.4441Y-3.6626
M16
G05
G00X4.4591Y-3.7626
M15
G01X4.4441Y-3.7626
M16
G05
G00X4.4591Y-3.8626
M15
G01X4.4441Y-3.8626
M16
G05
G00X4.4591Y-3.9626
M15
G01X4.4441Y-3.9626
M16
G05
G00X4.4591Y-4.0626
M15
G01X4.4441Y-4.0626
M16
G05
G00X4.4591Y-4.1626
M15
G01X4.4441Y-4.1626
M16
G05
G00X4.4591Y-4.2626
M15
G01X4.4441Y-4.2626
M16
G05
G00X4.4591Y-4.3626
M15
G01X4.4441Y-4.3626
M16
G05
G00X4.4591Y-4.4626
M15
G01X4.4441Y-4.4626
M16
G05
G00X4.4591Y-4.5626
M15
G01X4.4441Y-4.5626
M16
G05
G00X4.4591Y-4.6626
M15
G01X4.4441Y-4.6626
M16
G05
G00X4.4591Y-4.7626
M15
G01X4.4441Y-4.7626
M16
G05
G00X4.4591Y-4.8626
M15
G01X4.4441Y-4.8626
M16
G05
G00X4.4591Y-4.9626
M15
G01X4.4441Y-4.9626
M16
G05
G00X4.4591Y-5.0626
M15
G01X4.4441Y-5.0626
M16
G05
G00X4.4591Y-5.1626
M15
G01X4.4441Y-5.1626
M16
G05
G00X4.4591Y-5.2626
M15
G01X4.4441Y-5.2626
M16
G05
G00X4.4591Y-5.3626
M15
G01X4.4441Y-5.3626
M16
G05
G00X4.4591Y-5.4626
M15
G01X4.4441Y-5.4626
M16
G05
G00X4.4591Y-5.5626
M15
G01X4.4441Y-5.5626
M16
G05
G00X4.4591Y-5.6626
M15
G01X4.4441Y-5.6626
M16
G05
G00X4.4591Y-5.7626
M15
G01X4.4441Y-5.7626
M16
G05
G00X4.4591Y-5.8626
M15
G01X4.4441Y-5.8626
M16
G05
G00X4.4591Y-5.9626
M15
G01X4.4441Y-5.9626
M16
G05
G00X4.4591Y-6.0626
M15
G01X4.4441Y-6.0626
M16
G05
G00X4.4591Y-6.1626
M15
G01X4.4441Y-6.1626
M16
G05
G00X4.4591Y-6.2626
M15
G01X4.4441Y-6.2626
M16
G05
T0
M30
