%TF.GenerationSoftware,KiCad,Pcbnew,(5.1.10)-1*%
%TF.CreationDate,2021-09-25T23:36:15+08:00*%
%TF.ProjectId,KCORES CSPS to ATX Converter,4b434f52-4553-4204-9353-505320746f20,1.0*%
%TF.SameCoordinates,Original*%
%TF.FileFunction,Soldermask,Bot*%
%TF.FilePolarity,Negative*%
%FSLAX46Y46*%
G04 Gerber Fmt 4.6, Leading zero omitted, Abs format (unit mm)*
G04 Created by KiCad (PCBNEW (5.1.10)-1) date 2021-09-25 23:36:15*
%MOMM*%
%LPD*%
G01*
G04 APERTURE LIST*
%ADD10C,2.540000*%
%ADD11O,3.800000X2.800000*%
%ADD12O,1.830000X2.130000*%
%ADD13O,1.700000X1.700000*%
%ADD14O,1.800000X1.800000*%
%ADD15O,2.180000X1.800000*%
%ADD16C,1.800000*%
%ADD17C,2.700000*%
%ADD18O,2.800000X3.800000*%
G04 APERTURE END LIST*
D10*
X124956000Y-78530000D02*
X105271000Y-78530000D01*
X124892500Y-106533500D02*
X105588500Y-106533500D01*
X105271000Y-142919000D02*
X105271000Y-78530000D01*
X124829000Y-116820500D02*
X103175500Y-116820500D01*
D11*
%TO.C,J8*%
X123695000Y-158930000D03*
X123695000Y-154730000D03*
X119495000Y-158930000D03*
G36*
G01*
X117855400Y-153330000D02*
X121134600Y-153330000D01*
G75*
G02*
X121395000Y-153590400I0J-260400D01*
G01*
X121395000Y-155869600D01*
G75*
G02*
X121134600Y-156130000I-260400J0D01*
G01*
X117855400Y-156130000D01*
G75*
G02*
X117595000Y-155869600I0J260400D01*
G01*
X117595000Y-153590400D01*
G75*
G02*
X117855400Y-153330000I260400J0D01*
G01*
G37*
%TD*%
D12*
%TO.C,M3*%
X120257000Y-147681500D03*
X122797000Y-147681500D03*
G36*
G01*
X126202000Y-148746500D02*
X124472000Y-148746500D01*
G75*
G02*
X124422000Y-148696500I0J50000D01*
G01*
X124422000Y-146666500D01*
G75*
G02*
X124472000Y-146616500I50000J0D01*
G01*
X126202000Y-146616500D01*
G75*
G02*
X126252000Y-146666500I0J-50000D01*
G01*
X126252000Y-148696500D01*
G75*
G02*
X126202000Y-148746500I-50000J0D01*
G01*
G37*
%TD*%
%TO.C,M2*%
X120320500Y-111359500D03*
X122860500Y-111359500D03*
G36*
G01*
X126265500Y-112424500D02*
X124535500Y-112424500D01*
G75*
G02*
X124485500Y-112374500I0J50000D01*
G01*
X124485500Y-110344500D01*
G75*
G02*
X124535500Y-110294500I50000J0D01*
G01*
X126265500Y-110294500D01*
G75*
G02*
X126315500Y-110344500I0J-50000D01*
G01*
X126315500Y-112374500D01*
G75*
G02*
X126265500Y-112424500I-50000J0D01*
G01*
G37*
%TD*%
%TO.C,M1*%
X109970000Y-111359500D03*
X112510000Y-111359500D03*
G36*
G01*
X115915000Y-112424500D02*
X114185000Y-112424500D01*
G75*
G02*
X114135000Y-112374500I0J50000D01*
G01*
X114135000Y-110344500D01*
G75*
G02*
X114185000Y-110294500I50000J0D01*
G01*
X115915000Y-110294500D01*
G75*
G02*
X115965000Y-110344500I0J-50000D01*
G01*
X115965000Y-112374500D01*
G75*
G02*
X115915000Y-112424500I-50000J0D01*
G01*
G37*
%TD*%
D13*
%TO.C,SW1*%
X107112500Y-149650000D03*
G36*
G01*
X115582500Y-148850000D02*
X115582500Y-150450000D01*
G75*
G02*
X115532500Y-150500000I-50000J0D01*
G01*
X113932500Y-150500000D01*
G75*
G02*
X113882500Y-150450000I0J50000D01*
G01*
X113882500Y-148850000D01*
G75*
G02*
X113932500Y-148800000I50000J0D01*
G01*
X115532500Y-148800000D01*
G75*
G02*
X115582500Y-148850000I0J-50000D01*
G01*
G37*
%TD*%
D14*
%TO.C,J2*%
X106604500Y-154476000D03*
X109144500Y-154476000D03*
X111684500Y-154476000D03*
G36*
G01*
X113374500Y-153576000D02*
X115074500Y-153576000D01*
G75*
G02*
X115124500Y-153626000I0J-50000D01*
G01*
X115124500Y-155326000D01*
G75*
G02*
X115074500Y-155376000I-50000J0D01*
G01*
X113374500Y-155376000D01*
G75*
G02*
X113324500Y-155326000I0J50000D01*
G01*
X113324500Y-153626000D01*
G75*
G02*
X113374500Y-153576000I50000J0D01*
G01*
G37*
%TD*%
D15*
%TO.C,J1*%
X100033000Y-80117500D03*
X100033000Y-82657500D03*
X100033000Y-85197500D03*
X100033000Y-87737500D03*
X100033000Y-90277500D03*
X100033000Y-92817500D03*
X100033000Y-95357500D03*
X100033000Y-97897500D03*
X100033000Y-100437500D03*
X100033000Y-102977500D03*
X100033000Y-105517500D03*
X100033000Y-108057500D03*
X100033000Y-110597500D03*
X100033000Y-113137500D03*
X100033000Y-115677500D03*
X100033000Y-118217500D03*
X100033000Y-120757500D03*
X100033000Y-123297500D03*
X100033000Y-125837500D03*
X100033000Y-128377500D03*
X100033000Y-130917500D03*
X100033000Y-133457500D03*
X100033000Y-135997500D03*
X100033000Y-138537500D03*
X100033000Y-141077500D03*
X100033000Y-143617500D03*
X100033000Y-146157500D03*
X100033000Y-148697500D03*
X100033000Y-151237500D03*
X100033000Y-153777500D03*
X100033000Y-156317500D03*
X100033000Y-158857500D03*
D16*
X94763000Y-158857500D03*
X94763000Y-156317500D03*
X94763000Y-153777500D03*
X94763000Y-151237500D03*
X94763000Y-148697500D03*
X94763000Y-146157500D03*
X94763000Y-143617500D03*
X94763000Y-141077500D03*
X94763000Y-138537500D03*
X94763000Y-135997500D03*
X94763000Y-133457500D03*
X94763000Y-130917500D03*
X94763000Y-128377500D03*
X94763000Y-125837500D03*
X94763000Y-123297500D03*
X94763000Y-120757500D03*
X94763000Y-118217500D03*
X94763000Y-115677500D03*
X94763000Y-113137500D03*
X94763000Y-110597500D03*
X94763000Y-108057500D03*
X94763000Y-105517500D03*
X94763000Y-102977500D03*
X94763000Y-100437500D03*
X94763000Y-97897500D03*
X94763000Y-95357500D03*
X94763000Y-92817500D03*
X94763000Y-90277500D03*
X94763000Y-87737500D03*
X94763000Y-85197500D03*
X94763000Y-82657500D03*
X96413000Y-158857500D03*
X96413000Y-156317500D03*
X96413000Y-153777500D03*
X96413000Y-151237500D03*
X96413000Y-148697500D03*
X96413000Y-146157500D03*
X96413000Y-143617500D03*
X96413000Y-141077500D03*
X96413000Y-138537500D03*
X96413000Y-135997500D03*
X96413000Y-133457500D03*
X96413000Y-130917500D03*
X96413000Y-128377500D03*
X96413000Y-125837500D03*
X96413000Y-123297500D03*
X96413000Y-120757500D03*
X96413000Y-118217500D03*
X96413000Y-115677500D03*
X96413000Y-113137500D03*
X96413000Y-110597500D03*
X96413000Y-108057500D03*
X96413000Y-105517500D03*
X96413000Y-102977500D03*
X96413000Y-100437500D03*
X96413000Y-97897500D03*
X96413000Y-95357500D03*
X96413000Y-92817500D03*
X96413000Y-90277500D03*
X96413000Y-87737500D03*
X96413000Y-85197500D03*
X96413000Y-82657500D03*
D17*
X87563000Y-151007500D03*
X87563000Y-87967500D03*
D16*
X94763000Y-80117500D03*
X96413000Y-80117500D03*
%TD*%
D18*
%TO.C,J6*%
X123967000Y-121256500D03*
X119767000Y-121256500D03*
X115567000Y-121256500D03*
X111367000Y-121256500D03*
X123967000Y-125456500D03*
X119767000Y-125456500D03*
G36*
G01*
X109967000Y-127096100D02*
X109967000Y-123816900D01*
G75*
G02*
X110227400Y-123556500I260400J0D01*
G01*
X112506600Y-123556500D01*
G75*
G02*
X112767000Y-123816900I0J-260400D01*
G01*
X112767000Y-127096100D01*
G75*
G02*
X112506600Y-127356500I-260400J0D01*
G01*
X110227400Y-127356500D01*
G75*
G02*
X109967000Y-127096100I0J260400D01*
G01*
G37*
X115567000Y-125456500D03*
%TD*%
%TO.C,J5*%
X123967000Y-82966000D03*
X119767000Y-82966000D03*
X115567000Y-82966000D03*
X111367000Y-82966000D03*
X123967000Y-87166000D03*
X119767000Y-87166000D03*
G36*
G01*
X109967000Y-88805600D02*
X109967000Y-85526400D01*
G75*
G02*
X110227400Y-85266000I260400J0D01*
G01*
X112506600Y-85266000D01*
G75*
G02*
X112767000Y-85526400I0J-260400D01*
G01*
X112767000Y-88805600D01*
G75*
G02*
X112506600Y-89066000I-260400J0D01*
G01*
X110227400Y-89066000D01*
G75*
G02*
X109967000Y-88805600I0J260400D01*
G01*
G37*
X115567000Y-87166000D03*
%TD*%
%TO.C,J4*%
X111340000Y-140197500D03*
X115540000Y-140197500D03*
X119740000Y-140197500D03*
X123940000Y-140197500D03*
X111340000Y-135997500D03*
X115540000Y-135997500D03*
G36*
G01*
X125340000Y-134357900D02*
X125340000Y-137637100D01*
G75*
G02*
X125079600Y-137897500I-260400J0D01*
G01*
X122800400Y-137897500D01*
G75*
G02*
X122540000Y-137637100I0J260400D01*
G01*
X122540000Y-134357900D01*
G75*
G02*
X122800400Y-134097500I260400J0D01*
G01*
X125079600Y-134097500D01*
G75*
G02*
X125340000Y-134357900I0J-260400D01*
G01*
G37*
X119740000Y-135997500D03*
%TD*%
%TO.C,J3*%
X111403500Y-101898000D03*
X115603500Y-101898000D03*
X119803500Y-101898000D03*
X124003500Y-101898000D03*
X111403500Y-97698000D03*
X115603500Y-97698000D03*
G36*
G01*
X125403500Y-96058400D02*
X125403500Y-99337600D01*
G75*
G02*
X125143100Y-99598000I-260400J0D01*
G01*
X122863900Y-99598000D01*
G75*
G02*
X122603500Y-99337600I0J260400D01*
G01*
X122603500Y-96058400D01*
G75*
G02*
X122863900Y-95798000I260400J0D01*
G01*
X125143100Y-95798000D01*
G75*
G02*
X125403500Y-96058400I0J-260400D01*
G01*
G37*
X119803500Y-97698000D03*
%TD*%
M02*
