M48
; DRILL file {KiCad (5.1.10)-1} date 09/25/21 23:36:10
; FORMAT={-:-/ absolute / inch / decimal}
; #@! TF.CreationDate,2021-09-25T23:36:10+08:00
; #@! TF.GenerationSoftware,Kicad,Pcbnew,(5.1.10)-1
; #@! TF.FileFunction,Plated,1,2,PTH
FMAT,2
INCH
T1C0.0315
T2C0.0394
T3C0.0402
T4C0.0433
T5C0.0709
%
G90
G05
T1
X4.217Y-5.8917
X4.517Y-5.8917
T2
X3.7308Y-3.1542
X3.7308Y-3.2542
X3.7308Y-3.3542
X3.7308Y-3.4542
X3.7308Y-3.5542
X3.7308Y-3.6542
X3.7308Y-3.7542
X3.7308Y-3.8542
X3.7308Y-3.9542
X3.7308Y-4.0542
X3.7308Y-4.1542
X3.7308Y-4.2542
X3.7308Y-4.3542
X3.7308Y-4.4542
X3.7308Y-4.5542
X3.7308Y-4.6542
X3.7308Y-4.7542
X3.7308Y-4.8542
X3.7308Y-4.9542
X3.7308Y-5.0542
X3.7308Y-5.1542
X3.7308Y-5.2542
X3.7308Y-5.3542
X3.7308Y-5.4542
X3.7308Y-5.5542
X3.7308Y-5.6542
X3.7308Y-5.7542
X3.7308Y-5.8542
X3.7308Y-5.9542
X3.7308Y-6.0542
X3.7308Y-6.1542
X3.7308Y-6.2542
X4.197Y-6.0817
X4.297Y-6.0817
X4.397Y-6.0817
X4.497Y-6.0817
T3
X4.3295Y-4.3842
X4.4295Y-4.3842
X4.5295Y-4.3842
X4.7345Y-5.8142
X4.737Y-4.3842
X4.8345Y-5.8142
X4.837Y-4.3842
X4.9345Y-5.8142
X4.937Y-4.3842
T4
X3.7958Y-3.1542
X3.7958Y-3.2542
X3.7958Y-3.3542
X3.7958Y-3.4542
X3.7958Y-3.5542
X3.7958Y-3.6542
X3.7958Y-3.7542
X3.7958Y-3.8542
X3.7958Y-3.9542
X3.7958Y-4.0542
X3.7958Y-4.1542
X3.7958Y-4.2542
X3.7958Y-4.3542
X3.7958Y-4.4542
X3.7958Y-4.5542
X3.7958Y-4.6542
X3.7958Y-4.7542
X3.7958Y-4.8542
X3.7958Y-4.9542
X3.7958Y-5.0542
X3.7958Y-5.1542
X3.7958Y-5.2542
X3.7958Y-5.3542
X3.7958Y-5.4542
X3.7958Y-5.5542
X3.7958Y-5.6542
X3.7958Y-5.7542
X3.7958Y-5.8542
X3.7958Y-5.9542
X3.7958Y-6.0542
X3.7958Y-6.1542
X3.7958Y-6.2542
T5
X4.3835Y-5.3542
X4.3835Y-5.5196
X4.3845Y-3.2664
X4.3845Y-3.4317
X4.3845Y-4.7739
X4.3845Y-4.9392
X4.386Y-3.8464
X4.386Y-4.0117
X4.5488Y-5.3542
X4.5488Y-5.5196
X4.5499Y-3.2664
X4.5499Y-3.4317
X4.5499Y-4.7739
X4.5499Y-4.9392
X4.5513Y-3.8464
X4.5513Y-4.0117
X4.7045Y-6.0917
X4.7045Y-6.2571
X4.7142Y-5.3542
X4.7142Y-5.5196
X4.7152Y-3.2664
X4.7152Y-3.4317
X4.7152Y-4.7739
X4.7152Y-4.9392
X4.7167Y-3.8464
X4.7167Y-4.0117
X4.8699Y-6.0917
X4.8699Y-6.2571
X4.8795Y-5.3542
X4.8795Y-5.5196
X4.8806Y-3.2664
X4.8806Y-3.4317
X4.8806Y-4.7739
X4.8806Y-4.9392
X4.882Y-3.8464
X4.882Y-4.0117
T4
G00X3.9458Y-3.1542
M15
G01X3.9308Y-3.1542
M16
G05
G00X3.9458Y-3.2542
M15
G01X3.9308Y-3.2542
M16
G05
G00X3.9458Y-3.3542
M15
G01X3.9308Y-3.3542
M16
G05
G00X3.9458Y-3.4542
M15
G01X3.9308Y-3.4542
M16
G05
G00X3.9458Y-3.5542
M15
G01X3.9308Y-3.5542
M16
G05
G00X3.9458Y-3.6542
M15
G01X3.9308Y-3.6542
M16
G05
G00X3.9458Y-3.7542
M15
G01X3.9308Y-3.7542
M16
G05
G00X3.9458Y-3.8542
M15
G01X3.9308Y-3.8542
M16
G05
G00X3.9458Y-3.9542
M15
G01X3.9308Y-3.9542
M16
G05
G00X3.9458Y-4.0542
M15
G01X3.9308Y-4.0542
M16
G05
G00X3.9458Y-4.1542
M15
G01X3.9308Y-4.1542
M16
G05
G00X3.9458Y-4.2542
M15
G01X3.9308Y-4.2542
M16
G05
G00X3.9458Y-4.3542
M15
G01X3.9308Y-4.3542
M16
G05
G00X3.9458Y-4.4542
M15
G01X3.9308Y-4.4542
M16
G05
G00X3.9458Y-4.5542
M15
G01X3.9308Y-4.5542
M16
G05
G00X3.9458Y-4.6542
M15
G01X3.9308Y-4.6542
M16
G05
G00X3.9458Y-4.7542
M15
G01X3.9308Y-4.7542
M16
G05
G00X3.9458Y-4.8542
M15
G01X3.9308Y-4.8542
M16
G05
G00X3.9458Y-4.9542
M15
G01X3.9308Y-4.9542
M16
G05
G00X3.9458Y-5.0542
M15
G01X3.9308Y-5.0542
M16
G05
G00X3.9458Y-5.1542
M15
G01X3.9308Y-5.1542
M16
G05
G00X3.9458Y-5.2542
M15
G01X3.9308Y-5.2542
M16
G05
G00X3.9458Y-5.3542
M15
G01X3.9308Y-5.3542
M16
G05
G00X3.9458Y-5.4542
M15
G01X3.9308Y-5.4542
M16
G05
G00X3.9458Y-5.5542
M15
G01X3.9308Y-5.5542
M16
G05
G00X3.9458Y-5.6542
M15
G01X3.9308Y-5.6542
M16
G05
G00X3.9458Y-5.7542
M15
G01X3.9308Y-5.7542
M16
G05
G00X3.9458Y-5.8542
M15
G01X3.9308Y-5.8542
M16
G05
G00X3.9458Y-5.9542
M15
G01X3.9308Y-5.9542
M16
G05
G00X3.9458Y-6.0542
M15
G01X3.9308Y-6.0542
M16
G05
G00X3.9458Y-6.1542
M15
G01X3.9308Y-6.1542
M16
G05
G00X3.9458Y-6.2542
M15
G01X3.9308Y-6.2542
M16
G05
T0
M30
