%TF.GenerationSoftware,KiCad,Pcbnew,(5.1.10)-1*%
%TF.CreationDate,2021-09-30T13:01:54+08:00*%
%TF.ProjectId,KCORES CSPS to ATX Converter,4b434f52-4553-4204-9353-505320746f20,1.0*%
%TF.SameCoordinates,Original*%
%TF.FileFunction,Legend,Top*%
%TF.FilePolarity,Positive*%
%FSLAX46Y46*%
G04 Gerber Fmt 4.6, Leading zero omitted, Abs format (unit mm)*
G04 Created by KiCad (PCBNEW (5.1.10)-1) date 2021-09-30 13:01:54*
%MOMM*%
%LPD*%
G01*
G04 APERTURE LIST*
%ADD10C,0.120000*%
%ADD11C,0.150000*%
G04 APERTURE END LIST*
D10*
%TO.C,J6*%
X127244000Y-128643000D02*
X127244000Y-125793000D01*
X124394000Y-128643000D02*
X127244000Y-128643000D01*
X116084000Y-117183000D02*
X117894000Y-117183000D01*
X116084000Y-118583000D02*
X116084000Y-117183000D01*
X108784000Y-118583000D02*
X116084000Y-118583000D01*
X108784000Y-128403000D02*
X108784000Y-118583000D01*
X117894000Y-128403000D02*
X108784000Y-128403000D01*
X119704000Y-117183000D02*
X117894000Y-117183000D01*
X119704000Y-118583000D02*
X119704000Y-117183000D01*
X127004000Y-118583000D02*
X119704000Y-118583000D01*
X127004000Y-128403000D02*
X127004000Y-118583000D01*
X117894000Y-128403000D02*
X127004000Y-128403000D01*
%TO.C,J5*%
X127244000Y-90416000D02*
X127244000Y-87566000D01*
X124394000Y-90416000D02*
X127244000Y-90416000D01*
X116084000Y-78956000D02*
X117894000Y-78956000D01*
X116084000Y-80356000D02*
X116084000Y-78956000D01*
X108784000Y-80356000D02*
X116084000Y-80356000D01*
X108784000Y-90176000D02*
X108784000Y-80356000D01*
X117894000Y-90176000D02*
X108784000Y-90176000D01*
X119704000Y-78956000D02*
X117894000Y-78956000D01*
X119704000Y-80356000D02*
X119704000Y-78956000D01*
X127004000Y-80356000D02*
X119704000Y-80356000D01*
X127004000Y-90176000D02*
X127004000Y-80356000D01*
X117894000Y-90176000D02*
X127004000Y-90176000D01*
%TO.C,J4*%
X108544000Y-132430000D02*
X108544000Y-135280000D01*
X111394000Y-132430000D02*
X108544000Y-132430000D01*
X119704000Y-143890000D02*
X117894000Y-143890000D01*
X119704000Y-142490000D02*
X119704000Y-143890000D01*
X127004000Y-142490000D02*
X119704000Y-142490000D01*
X127004000Y-132670000D02*
X127004000Y-142490000D01*
X117894000Y-132670000D02*
X127004000Y-132670000D01*
X116084000Y-143890000D02*
X117894000Y-143890000D01*
X116084000Y-142490000D02*
X116084000Y-143890000D01*
X108784000Y-142490000D02*
X116084000Y-142490000D01*
X108784000Y-132670000D02*
X108784000Y-142490000D01*
X117894000Y-132670000D02*
X108784000Y-132670000D01*
%TO.C,J3*%
X108571000Y-94330000D02*
X108571000Y-97180000D01*
X111421000Y-94330000D02*
X108571000Y-94330000D01*
X119731000Y-105790000D02*
X117921000Y-105790000D01*
X119731000Y-104390000D02*
X119731000Y-105790000D01*
X127031000Y-104390000D02*
X119731000Y-104390000D01*
X127031000Y-94570000D02*
X127031000Y-104390000D01*
X117921000Y-94570000D02*
X127031000Y-94570000D01*
X116111000Y-105790000D02*
X117921000Y-105790000D01*
X116111000Y-104390000D02*
X116111000Y-105790000D01*
X108811000Y-104390000D02*
X116111000Y-104390000D01*
X108811000Y-94570000D02*
X108811000Y-104390000D01*
X117921000Y-94570000D02*
X108811000Y-94570000D01*
%TO.C,J1*%
D11*
X99333380Y-91991333D02*
X100047666Y-91991333D01*
X100190523Y-92038952D01*
X100285761Y-92134190D01*
X100333380Y-92277047D01*
X100333380Y-92372285D01*
X100333380Y-90991333D02*
X100333380Y-91562761D01*
X100333380Y-91277047D02*
X99333380Y-91277047D01*
X99476238Y-91372285D01*
X99571476Y-91467523D01*
X99619095Y-91562761D01*
%TO.C,J6*%
X112931238Y-114860000D02*
X112836000Y-114812380D01*
X112693142Y-114812380D01*
X112550285Y-114860000D01*
X112455047Y-114955238D01*
X112407428Y-115050476D01*
X112359809Y-115240952D01*
X112359809Y-115383809D01*
X112407428Y-115574285D01*
X112455047Y-115669523D01*
X112550285Y-115764761D01*
X112693142Y-115812380D01*
X112788380Y-115812380D01*
X112931238Y-115764761D01*
X112978857Y-115717142D01*
X112978857Y-115383809D01*
X112788380Y-115383809D01*
X113312190Y-114812380D02*
X113550285Y-115812380D01*
X113740761Y-115098095D01*
X113931238Y-115812380D01*
X114169333Y-114812380D01*
X114312190Y-115907619D02*
X115074095Y-115907619D01*
X115312190Y-115812380D02*
X115312190Y-114812380D01*
X115693142Y-114812380D01*
X115788380Y-114860000D01*
X115836000Y-114907619D01*
X115883619Y-115002857D01*
X115883619Y-115145714D01*
X115836000Y-115240952D01*
X115788380Y-115288571D01*
X115693142Y-115336190D01*
X115312190Y-115336190D01*
X116883619Y-115717142D02*
X116836000Y-115764761D01*
X116693142Y-115812380D01*
X116597904Y-115812380D01*
X116455047Y-115764761D01*
X116359809Y-115669523D01*
X116312190Y-115574285D01*
X116264571Y-115383809D01*
X116264571Y-115240952D01*
X116312190Y-115050476D01*
X116359809Y-114955238D01*
X116455047Y-114860000D01*
X116597904Y-114812380D01*
X116693142Y-114812380D01*
X116836000Y-114860000D01*
X116883619Y-114907619D01*
X117312190Y-115812380D02*
X117312190Y-114812380D01*
X118169333Y-115764761D02*
X118074095Y-115812380D01*
X117883619Y-115812380D01*
X117788380Y-115764761D01*
X117740761Y-115669523D01*
X117740761Y-115288571D01*
X117788380Y-115193333D01*
X117883619Y-115145714D01*
X118074095Y-115145714D01*
X118169333Y-115193333D01*
X118216952Y-115288571D01*
X118216952Y-115383809D01*
X117740761Y-115479047D01*
X119359809Y-114764761D02*
X118502666Y-116050476D01*
X120264571Y-115717142D02*
X120216952Y-115764761D01*
X120074095Y-115812380D01*
X119978857Y-115812380D01*
X119836000Y-115764761D01*
X119740761Y-115669523D01*
X119693142Y-115574285D01*
X119645523Y-115383809D01*
X119645523Y-115240952D01*
X119693142Y-115050476D01*
X119740761Y-114955238D01*
X119836000Y-114860000D01*
X119978857Y-114812380D01*
X120074095Y-114812380D01*
X120216952Y-114860000D01*
X120264571Y-114907619D01*
X120693142Y-115812380D02*
X120693142Y-114812380D01*
X121074095Y-114812380D01*
X121169333Y-114860000D01*
X121216952Y-114907619D01*
X121264571Y-115002857D01*
X121264571Y-115145714D01*
X121216952Y-115240952D01*
X121169333Y-115288571D01*
X121074095Y-115336190D01*
X120693142Y-115336190D01*
X121693142Y-114812380D02*
X121693142Y-115621904D01*
X121740761Y-115717142D01*
X121788380Y-115764761D01*
X121883619Y-115812380D01*
X122074095Y-115812380D01*
X122169333Y-115764761D01*
X122216952Y-115717142D01*
X122264571Y-115621904D01*
X122264571Y-114812380D01*
%TO.C,J5*%
X105819238Y-78284000D02*
X105724000Y-78236380D01*
X105581142Y-78236380D01*
X105438285Y-78284000D01*
X105343047Y-78379238D01*
X105295428Y-78474476D01*
X105247809Y-78664952D01*
X105247809Y-78807809D01*
X105295428Y-78998285D01*
X105343047Y-79093523D01*
X105438285Y-79188761D01*
X105581142Y-79236380D01*
X105676380Y-79236380D01*
X105819238Y-79188761D01*
X105866857Y-79141142D01*
X105866857Y-78807809D01*
X105676380Y-78807809D01*
X106200190Y-78236380D02*
X106438285Y-79236380D01*
X106628761Y-78522095D01*
X106819238Y-79236380D01*
X107057333Y-78236380D01*
X107200190Y-79331619D02*
X107962095Y-79331619D01*
X108200190Y-79236380D02*
X108200190Y-78236380D01*
X108581142Y-78236380D01*
X108676380Y-78284000D01*
X108724000Y-78331619D01*
X108771619Y-78426857D01*
X108771619Y-78569714D01*
X108724000Y-78664952D01*
X108676380Y-78712571D01*
X108581142Y-78760190D01*
X108200190Y-78760190D01*
X109771619Y-79141142D02*
X109724000Y-79188761D01*
X109581142Y-79236380D01*
X109485904Y-79236380D01*
X109343047Y-79188761D01*
X109247809Y-79093523D01*
X109200190Y-78998285D01*
X109152571Y-78807809D01*
X109152571Y-78664952D01*
X109200190Y-78474476D01*
X109247809Y-78379238D01*
X109343047Y-78284000D01*
X109485904Y-78236380D01*
X109581142Y-78236380D01*
X109724000Y-78284000D01*
X109771619Y-78331619D01*
X110200190Y-79236380D02*
X110200190Y-78236380D01*
X111057333Y-79188761D02*
X110962095Y-79236380D01*
X110771619Y-79236380D01*
X110676380Y-79188761D01*
X110628761Y-79093523D01*
X110628761Y-78712571D01*
X110676380Y-78617333D01*
X110771619Y-78569714D01*
X110962095Y-78569714D01*
X111057333Y-78617333D01*
X111104952Y-78712571D01*
X111104952Y-78807809D01*
X110628761Y-78903047D01*
X112247809Y-78188761D02*
X111390666Y-79474476D01*
X113152571Y-79141142D02*
X113104952Y-79188761D01*
X112962095Y-79236380D01*
X112866857Y-79236380D01*
X112724000Y-79188761D01*
X112628761Y-79093523D01*
X112581142Y-78998285D01*
X112533523Y-78807809D01*
X112533523Y-78664952D01*
X112581142Y-78474476D01*
X112628761Y-78379238D01*
X112724000Y-78284000D01*
X112866857Y-78236380D01*
X112962095Y-78236380D01*
X113104952Y-78284000D01*
X113152571Y-78331619D01*
X113581142Y-79236380D02*
X113581142Y-78236380D01*
X113962095Y-78236380D01*
X114057333Y-78284000D01*
X114104952Y-78331619D01*
X114152571Y-78426857D01*
X114152571Y-78569714D01*
X114104952Y-78664952D01*
X114057333Y-78712571D01*
X113962095Y-78760190D01*
X113581142Y-78760190D01*
X114581142Y-78236380D02*
X114581142Y-79045904D01*
X114628761Y-79141142D01*
X114676380Y-79188761D01*
X114771619Y-79236380D01*
X114962095Y-79236380D01*
X115057333Y-79188761D01*
X115104952Y-79141142D01*
X115152571Y-79045904D01*
X115152571Y-78236380D01*
%TO.C,J4*%
X105946238Y-143308000D02*
X105851000Y-143260380D01*
X105708142Y-143260380D01*
X105565285Y-143308000D01*
X105470047Y-143403238D01*
X105422428Y-143498476D01*
X105374809Y-143688952D01*
X105374809Y-143831809D01*
X105422428Y-144022285D01*
X105470047Y-144117523D01*
X105565285Y-144212761D01*
X105708142Y-144260380D01*
X105803380Y-144260380D01*
X105946238Y-144212761D01*
X105993857Y-144165142D01*
X105993857Y-143831809D01*
X105803380Y-143831809D01*
X106327190Y-143260380D02*
X106565285Y-144260380D01*
X106755761Y-143546095D01*
X106946238Y-144260380D01*
X107184333Y-143260380D01*
X107327190Y-144355619D02*
X108089095Y-144355619D01*
X108327190Y-144260380D02*
X108327190Y-143260380D01*
X108708142Y-143260380D01*
X108803380Y-143308000D01*
X108851000Y-143355619D01*
X108898619Y-143450857D01*
X108898619Y-143593714D01*
X108851000Y-143688952D01*
X108803380Y-143736571D01*
X108708142Y-143784190D01*
X108327190Y-143784190D01*
X109898619Y-144165142D02*
X109851000Y-144212761D01*
X109708142Y-144260380D01*
X109612904Y-144260380D01*
X109470047Y-144212761D01*
X109374809Y-144117523D01*
X109327190Y-144022285D01*
X109279571Y-143831809D01*
X109279571Y-143688952D01*
X109327190Y-143498476D01*
X109374809Y-143403238D01*
X109470047Y-143308000D01*
X109612904Y-143260380D01*
X109708142Y-143260380D01*
X109851000Y-143308000D01*
X109898619Y-143355619D01*
X110327190Y-144260380D02*
X110327190Y-143260380D01*
X111184333Y-144212761D02*
X111089095Y-144260380D01*
X110898619Y-144260380D01*
X110803380Y-144212761D01*
X110755761Y-144117523D01*
X110755761Y-143736571D01*
X110803380Y-143641333D01*
X110898619Y-143593714D01*
X111089095Y-143593714D01*
X111184333Y-143641333D01*
X111231952Y-143736571D01*
X111231952Y-143831809D01*
X110755761Y-143927047D01*
X112374809Y-143212761D02*
X111517666Y-144498476D01*
X113279571Y-144165142D02*
X113231952Y-144212761D01*
X113089095Y-144260380D01*
X112993857Y-144260380D01*
X112851000Y-144212761D01*
X112755761Y-144117523D01*
X112708142Y-144022285D01*
X112660523Y-143831809D01*
X112660523Y-143688952D01*
X112708142Y-143498476D01*
X112755761Y-143403238D01*
X112851000Y-143308000D01*
X112993857Y-143260380D01*
X113089095Y-143260380D01*
X113231952Y-143308000D01*
X113279571Y-143355619D01*
X113708142Y-144260380D02*
X113708142Y-143260380D01*
X114089095Y-143260380D01*
X114184333Y-143308000D01*
X114231952Y-143355619D01*
X114279571Y-143450857D01*
X114279571Y-143593714D01*
X114231952Y-143688952D01*
X114184333Y-143736571D01*
X114089095Y-143784190D01*
X113708142Y-143784190D01*
X114708142Y-143260380D02*
X114708142Y-144069904D01*
X114755761Y-144165142D01*
X114803380Y-144212761D01*
X114898619Y-144260380D01*
X115089095Y-144260380D01*
X115184333Y-144212761D01*
X115231952Y-144165142D01*
X115279571Y-144069904D01*
X115279571Y-143260380D01*
%TO.C,J3*%
X112931238Y-107748000D02*
X112836000Y-107700380D01*
X112693142Y-107700380D01*
X112550285Y-107748000D01*
X112455047Y-107843238D01*
X112407428Y-107938476D01*
X112359809Y-108128952D01*
X112359809Y-108271809D01*
X112407428Y-108462285D01*
X112455047Y-108557523D01*
X112550285Y-108652761D01*
X112693142Y-108700380D01*
X112788380Y-108700380D01*
X112931238Y-108652761D01*
X112978857Y-108605142D01*
X112978857Y-108271809D01*
X112788380Y-108271809D01*
X113312190Y-107700380D02*
X113550285Y-108700380D01*
X113740761Y-107986095D01*
X113931238Y-108700380D01*
X114169333Y-107700380D01*
X114312190Y-108795619D02*
X115074095Y-108795619D01*
X115312190Y-108700380D02*
X115312190Y-107700380D01*
X115693142Y-107700380D01*
X115788380Y-107748000D01*
X115836000Y-107795619D01*
X115883619Y-107890857D01*
X115883619Y-108033714D01*
X115836000Y-108128952D01*
X115788380Y-108176571D01*
X115693142Y-108224190D01*
X115312190Y-108224190D01*
X116883619Y-108605142D02*
X116836000Y-108652761D01*
X116693142Y-108700380D01*
X116597904Y-108700380D01*
X116455047Y-108652761D01*
X116359809Y-108557523D01*
X116312190Y-108462285D01*
X116264571Y-108271809D01*
X116264571Y-108128952D01*
X116312190Y-107938476D01*
X116359809Y-107843238D01*
X116455047Y-107748000D01*
X116597904Y-107700380D01*
X116693142Y-107700380D01*
X116836000Y-107748000D01*
X116883619Y-107795619D01*
X117312190Y-108700380D02*
X117312190Y-107700380D01*
X118169333Y-108652761D02*
X118074095Y-108700380D01*
X117883619Y-108700380D01*
X117788380Y-108652761D01*
X117740761Y-108557523D01*
X117740761Y-108176571D01*
X117788380Y-108081333D01*
X117883619Y-108033714D01*
X118074095Y-108033714D01*
X118169333Y-108081333D01*
X118216952Y-108176571D01*
X118216952Y-108271809D01*
X117740761Y-108367047D01*
X119359809Y-107652761D02*
X118502666Y-108938476D01*
X120264571Y-108605142D02*
X120216952Y-108652761D01*
X120074095Y-108700380D01*
X119978857Y-108700380D01*
X119836000Y-108652761D01*
X119740761Y-108557523D01*
X119693142Y-108462285D01*
X119645523Y-108271809D01*
X119645523Y-108128952D01*
X119693142Y-107938476D01*
X119740761Y-107843238D01*
X119836000Y-107748000D01*
X119978857Y-107700380D01*
X120074095Y-107700380D01*
X120216952Y-107748000D01*
X120264571Y-107795619D01*
X120693142Y-108700380D02*
X120693142Y-107700380D01*
X121074095Y-107700380D01*
X121169333Y-107748000D01*
X121216952Y-107795619D01*
X121264571Y-107890857D01*
X121264571Y-108033714D01*
X121216952Y-108128952D01*
X121169333Y-108176571D01*
X121074095Y-108224190D01*
X120693142Y-108224190D01*
X121693142Y-107700380D02*
X121693142Y-108509904D01*
X121740761Y-108605142D01*
X121788380Y-108652761D01*
X121883619Y-108700380D01*
X122074095Y-108700380D01*
X122169333Y-108652761D01*
X122216952Y-108605142D01*
X122264571Y-108509904D01*
X122264571Y-107700380D01*
%TD*%
M02*
